<svg width="31" height="30" viewBox="0 0 31 30" fill="none" xmlns="http://www.w3.org/2000/svg">
<rect x="0.762695" width="29.8125" height="29.8125" rx="14.9062" fill="#004F2D"/>
<path d="M17.7329 12.1501C16.9134 13.5695 14.8647 13.5695 14.0452 12.1501L11.8063 8.27229C10.9869 6.85291 12.0112 5.07868 13.6502 5.07868H18.1279C19.7669 5.07868 20.7912 6.85291 19.9718 8.27229L17.7329 12.1501Z" fill="white"/>
<path d="M17.4329 16.9604C16.0135 16.1409 16.0135 14.0922 17.4329 13.2728L21.3107 11.0339C22.7301 10.2144 24.5043 11.2387 24.5043 12.8777V17.3555C24.5043 18.9944 22.7301 20.0188 21.3107 19.1993L17.4329 16.9604Z" fill="white"/>
<path d="M14.5701 13.0454C15.9894 13.8649 15.9894 15.9136 14.5701 16.7331L10.6922 18.972C9.27283 19.7915 7.49861 18.7671 7.49861 17.1281L7.49861 12.6504C7.49861 11.0114 9.27283 9.98709 10.6922 10.8066L14.5701 13.0454Z" fill="white"/>
<path d="M14.0435 17.9807C14.863 16.5613 16.9117 16.5613 17.7312 17.9807L19.97 21.8586C20.7895 23.278 19.7652 25.0522 18.1262 25.0522H13.6484C12.0095 25.0522 10.9851 23.2779 11.8046 21.8586L14.0435 17.9807Z" fill="white"/>
</svg>
