<svg width="30" height="30" viewBox="0 0 30 30" fill="none" xmlns="http://www.w3.org/2000/svg">
<rect width="30" height="30" rx="15" fill="#004F2D" fill-opacity="0.04"/>
<path d="M6.66602 6.66699H8.11602C9.01602 6.66699 9.72435 7.44199 9.64935 8.33366L8.95768 16.6337C8.84102 17.992 9.91601 19.1587 11.2827 19.1587H20.1577C21.3577 19.1587 22.4077 18.1753 22.4993 16.9837L22.9493 10.7337C23.0493 9.35033 21.9993 8.22532 20.6077 8.22532H9.84936" stroke="#004F2D" stroke-width="1.04167" stroke-miterlimit="10" stroke-linecap="round" stroke-linejoin="round"/>
<path d="M18.5417 23.3333C19.117 23.3333 19.5833 22.867 19.5833 22.2917C19.5833 21.7164 19.117 21.25 18.5417 21.25C17.9664 21.25 17.5 21.7164 17.5 22.2917C17.5 22.867 17.9664 23.3333 18.5417 23.3333Z" stroke="#004F2D" stroke-width="1.04167" stroke-miterlimit="10" stroke-linecap="round" stroke-linejoin="round"/>
<path d="M11.8737 23.3333C12.449 23.3333 12.9154 22.867 12.9154 22.2917C12.9154 21.7164 12.449 21.25 11.8737 21.25C11.2984 21.25 10.832 21.7164 10.832 22.2917C10.832 22.867 11.2984 23.3333 11.8737 23.3333Z" stroke="#004F2D" stroke-width="1.04167" stroke-miterlimit="10" stroke-linecap="round" stroke-linejoin="round"/>
<path d="M12.501 11.666H22.501" stroke="#004F2D" stroke-width="1.04167" stroke-miterlimit="10" stroke-linecap="round" stroke-linejoin="round"/>
</svg>
