<svg width="19" height="19" viewBox="0 0 19 19" fill="none" xmlns="http://www.w3.org/2000/svg">
<path d="M10.0802 6.97852H5.42773" stroke="#3B45F1" stroke-width="1.5" stroke-linecap="round" stroke-linejoin="round"/>
<path d="M17.0592 8.50671V10.1041C17.0592 10.5306 16.7181 10.8795 16.2838 10.895H14.764C13.9265 10.895 13.1589 10.2824 13.0891 9.44498C13.0426 8.95647 13.2287 8.49897 13.5543 8.18105C13.8412 7.88639 14.2367 7.71582 14.6709 7.71582H16.2838C16.7181 7.73133 17.0592 8.08023 17.0592 8.50671Z" stroke="#3B45F1" stroke-width="1.5" stroke-linecap="round" stroke-linejoin="round"/>
<path d="M13.5542 8.18055C13.2285 8.49847 13.0425 8.95597 13.089 9.44448C13.1588 10.2819 13.9264 10.8945 14.7639 10.8945H16.2837V12.0189C16.2837 14.3451 14.7329 15.896 12.4066 15.896H5.42786C3.10161 15.896 1.55078 14.3451 1.55078 12.0189V6.59095C1.55078 4.48182 2.82247 3.00852 4.79978 2.76039C5.00139 2.72937 5.21075 2.71387 5.42786 2.71387H12.4066C12.6082 2.71387 12.8021 2.72161 12.9882 2.75263C14.9888 2.98525 16.2837 4.46631 16.2837 6.59095V7.71531H14.6708C14.2366 7.71531 13.8411 7.88589 13.5542 8.18055Z" stroke="#3B45F1" stroke-width="1.5" stroke-linecap="round" stroke-linejoin="round"/>
</svg>
