<svg width="18" height="18" viewBox="0 0 18 18" fill="none" xmlns="http://www.w3.org/2000/svg">
<path d="M7.13512 16.2475C6.99229 16.2475 6.87802 16.2189 6.79232 16.1832C6.50666 16.0761 6.02102 15.7261 6.02102 14.6192V10.0128H4.34987C3.39289 10.0128 3.05009 9.56286 2.92868 9.29862C2.80727 9.02724 2.70015 8.47733 3.32861 7.75602L8.73486 1.61419C9.46331 0.785754 10.0561 0.842887 10.3417 0.950012C10.6274 1.05714 11.113 1.40708 11.113 2.51404V7.12041H12.7842C13.7412 7.12041 14.084 7.57034 14.2054 7.83458C14.3268 8.10596 14.4339 8.65587 13.8054 9.37718L8.3992 15.519C7.89214 16.0975 7.44936 16.2475 7.13512 16.2475ZM9.94894 1.95699C9.92752 1.98555 9.77754 2.05697 9.54186 2.32835L4.13562 8.47019C3.93566 8.69872 3.90709 8.84155 3.90709 8.87012C3.92137 8.87726 4.04992 8.94868 4.34987 8.94868H6.55665C6.84946 8.94868 7.09227 9.19149 7.09227 9.4843V14.6263C7.09227 14.9834 7.15655 15.1405 7.18511 15.1834C7.20654 15.1548 7.35651 15.0834 7.59219 14.812L12.9984 8.67015C13.1984 8.44162 13.227 8.29879 13.227 8.27022C13.2127 8.26308 13.0841 8.19166 12.7842 8.19166H10.5774C10.2846 8.19166 10.0418 7.94885 10.0418 7.65604V2.51404C10.0489 2.15695 9.97751 2.00698 9.94894 1.95699Z" fill="#C11717"/>
</svg>
