<svg width="25" height="24" viewBox="0 0 25 24" fill="none" xmlns="http://www.w3.org/2000/svg">
<path d="M17.5 3.5H7.5C4.5 3.5 2.5 5 2.5 8.5V15.5C2.5 19 4.5 20.5 7.5 20.5H17.5C20.5 20.5 22.5 19 22.5 15.5V8.5C22.5 5 20.5 3.5 17.5 3.5ZM7.25 16C7.25 16.41 6.91 16.75 6.5 16.75C6.09 16.75 5.75 16.41 5.75 16V8C5.75 7.59 6.09 7.25 6.5 7.25C6.91 7.25 7.25 7.59 7.25 8V16ZM10.25 16C10.25 16.41 9.91 16.75 9.5 16.75C9.09 16.75 8.75 16.41 8.75 16V15C8.75 14.59 9.09 14.25 9.5 14.25C9.91 14.25 10.25 14.59 10.25 15V16ZM10.25 12C10.25 12.41 9.91 12.75 9.5 12.75C9.09 12.75 8.75 12.41 8.75 12V8C8.75 7.59 9.09 7.25 9.5 7.25C9.91 7.25 10.25 7.59 10.25 8V12ZM13.25 16C13.25 16.41 12.91 16.75 12.5 16.75C12.09 16.75 11.75 16.41 11.75 16V8C11.75 7.59 12.09 7.25 12.5 7.25C12.91 7.25 13.25 7.59 13.25 8V16ZM16.25 16C16.25 16.41 15.91 16.75 15.5 16.75C15.09 16.75 14.75 16.41 14.75 16V12C14.75 11.59 15.09 11.25 15.5 11.25C15.91 11.25 16.25 11.59 16.25 12V16ZM16.25 9C16.25 9.41 15.91 9.75 15.5 9.75C15.09 9.75 14.75 9.41 14.75 9V8C14.75 7.59 15.09 7.25 15.5 7.25C15.91 7.25 16.25 7.59 16.25 8V9ZM19.25 16C19.25 16.41 18.91 16.75 18.5 16.75C18.09 16.75 17.75 16.41 17.75 16V8C17.75 7.59 18.09 7.25 18.5 7.25C18.91 7.25 19.25 7.59 19.25 8V16Z" fill="#004F2D"/>
</svg>
