<svg width="30" height="30" viewBox="0 0 30 30" fill="none" xmlns="http://www.w3.org/2000/svg">
<rect width="30" height="30" rx="15" fill="#004F2D" fill-opacity="0.04"/>
<path d="M15.0175 7.4248C12.2591 7.4248 10.0175 9.66647 10.0175 12.4248V14.8331C10.0175 15.3415 9.80081 16.1165 9.54247 16.5498L8.58414 18.1415C7.99247 19.1248 8.40081 20.2165 9.48414 20.5831C13.0758 21.7831 16.9508 21.7831 20.5425 20.5831C21.5508 20.2498 21.9925 19.0581 21.4425 18.1415L20.4841 16.5498C20.2341 16.1165 20.0175 15.3415 20.0175 14.8331V12.4248C20.0175 9.6748 17.7675 7.4248 15.0175 7.4248Z" stroke="#004F2D" stroke-width="1.2" stroke-miterlimit="10" stroke-linecap="round"/>
<path d="M16.5579 7.66621C16.2996 7.59121 16.0329 7.53288 15.7579 7.49954C14.9579 7.39954 14.1913 7.45788 13.4746 7.66621C13.7163 7.04954 14.3163 6.61621 15.0163 6.61621C15.7163 6.61621 16.3163 7.04954 16.5579 7.66621Z" stroke="#004F2D" stroke-width="1.2" stroke-miterlimit="10" stroke-linecap="round" stroke-linejoin="round"/>
<path d="M17.5156 20.8838C17.5156 22.2588 16.3906 23.3838 15.0156 23.3838C14.3323 23.3838 13.699 23.1005 13.249 22.6505C12.799 22.2005 12.5156 21.5671 12.5156 20.8838" stroke="#004F2D" stroke-width="1.2" stroke-miterlimit="10"/>
</svg>
