<svg width="340" height="314" viewBox="0 0 340 314" fill="none" xmlns="http://www.w3.org/2000/svg">
<path d="M110.625 295.849C149.805 295.849 181.568 286.838 181.568 275.723C181.568 264.608 149.805 255.598 110.625 255.598C71.4439 255.598 39.6816 264.608 39.6816 275.723C39.6816 286.838 71.4439 295.849 110.625 295.849Z" fill="#92E3A9"/>
<path opacity="0.53" d="M110.625 295.849C149.805 295.849 181.568 286.838 181.568 275.723C181.568 264.608 149.805 255.598 110.625 255.598C71.4439 255.598 39.6816 264.608 39.6816 275.723C39.6816 286.838 71.4439 295.849 110.625 295.849Z" fill="white"/>
<path d="M310.016 274.853C310.016 278.233 279.425 280.979 241.687 280.979C203.948 280.979 173.357 278.26 173.357 274.853C173.357 271.446 203.948 268.728 241.687 268.728C279.425 268.728 310.016 271.464 310.016 274.853Z" fill="#92E3A9"/>
<path opacity="0.53" d="M310.016 274.853C310.016 278.233 279.425 280.979 241.687 280.979C203.948 280.979 173.357 278.26 173.357 274.853C173.357 271.446 203.948 268.728 241.687 268.728C279.425 268.728 310.016 271.464 310.016 274.853Z" fill="white"/>
<path d="M178.114 231.812L302.064 231.812C307.629 231.812 312.141 227.276 312.141 221.681V10.8756C312.141 5.28062 307.629 0.744965 302.064 0.744965L178.114 0.744965C172.549 0.744965 168.037 5.28062 168.037 10.8756L168.037 221.681C168.037 227.276 172.549 231.812 178.114 231.812Z" fill="#263238" stroke="#263238" stroke-linecap="round" stroke-linejoin="round"/>
<path d="M297.206 8.62891H182.964C179.285 8.62891 176.303 11.627 176.303 15.3253V217.232C176.303 220.93 179.285 223.929 182.964 223.929H297.206C300.885 223.929 303.867 220.93 303.867 217.232V15.3253C303.867 11.627 300.885 8.62891 297.206 8.62891Z" fill="white"/>
<mask id="mask0_940_7043" style="mask-type:luminance" maskUnits="userSpaceOnUse" x="176" y="8" width="128" height="216">
<path d="M297.204 8.62891H182.962C179.283 8.62891 176.301 11.627 176.301 15.3253V217.232C176.301 220.93 179.283 223.929 182.962 223.929H297.204C300.883 223.929 303.865 220.93 303.865 217.232V15.3253C303.865 11.627 300.883 8.62891 297.204 8.62891Z" fill="white"/>
</mask>
<g mask="url(#mask0_940_7043)">
<path d="M176.301 145.765V217.232C176.301 219.008 177.003 220.711 178.252 221.967C179.501 223.223 181.195 223.929 182.962 223.929H297.204C298.971 223.929 300.665 223.223 301.914 221.967C303.163 220.711 303.865 219.008 303.865 217.232V145.765H176.301Z" fill="#92E3A9"/>
<path opacity="0.53" d="M176.301 145.765V217.232C176.301 219.008 177.003 220.711 178.252 221.967C179.501 223.223 181.195 223.929 182.962 223.929H297.204C298.971 223.929 300.665 223.223 301.914 221.967C303.163 220.711 303.865 219.008 303.865 217.232V145.765H176.301Z" fill="white"/>
<path d="M239.637 96.3432C256.81 96.3432 270.732 82.3468 270.732 65.0813C270.732 47.8158 256.81 33.8193 239.637 33.8193C222.463 33.8193 208.541 47.8158 208.541 65.0813C208.541 82.3468 222.463 96.3432 239.637 96.3432Z" fill="#92E3A9"/>
<path opacity="0.53" d="M239.637 96.3432C256.81 96.3432 270.732 82.3468 270.732 65.0813C270.732 47.8158 256.81 33.8193 239.637 33.8193C222.463 33.8193 208.541 47.8158 208.541 65.0813C208.541 82.3468 222.463 96.3432 239.637 96.3432Z" fill="white"/>
<path d="M249.389 73.9803C248.365 73.9866 247.37 74.3289 246.557 74.9553C245.743 75.5817 245.155 76.4579 244.883 77.4509H232.562C232.339 76.6479 231.911 75.9178 231.319 75.3341C230.728 74.7503 229.993 74.3334 229.191 74.1253V72.7117H250.318C250.61 72.7145 250.895 72.6133 251.121 72.426C251.346 72.2387 251.499 71.9773 251.552 71.6878L254.04 58.5306C254.075 58.3481 254.069 58.1603 254.022 57.9804C253.976 57.8006 253.891 57.6333 253.773 57.4904C253.655 57.3475 253.507 57.2326 253.34 57.154C253.173 57.0753 252.99 57.0348 252.805 57.0355H229.236V51.1183C229.234 50.8478 229.146 50.5849 228.983 50.3693C228.821 50.1536 228.593 49.9967 228.334 49.9222L221.502 47.7294C221.341 47.6643 221.169 47.6332 220.995 47.6382C220.822 47.6432 220.651 47.6841 220.494 47.7583C220.337 47.8325 220.197 47.9384 220.083 48.0695C219.969 48.2006 219.882 48.354 219.829 48.5202C219.777 48.6863 219.758 48.8616 219.776 49.0351C219.794 49.2086 219.847 49.3766 219.932 49.5286C220.017 49.6806 220.132 49.8133 220.271 49.9184C220.409 50.0236 220.568 50.0989 220.736 50.1397L226.703 52.0426V74.1797C225.919 74.4146 225.209 74.8513 224.643 75.4465C224.078 76.0417 223.677 76.7748 223.48 77.5734C223.283 78.3721 223.296 79.2087 223.519 80.0005C223.742 80.7923 224.166 81.512 224.751 82.0884C225.335 82.6649 226.058 83.0781 226.85 83.2874C227.641 83.4967 228.474 83.4947 229.264 83.2817C230.055 83.0687 230.777 82.652 231.358 82.0728C231.939 81.4935 232.36 80.7719 232.58 79.979H244.874C245.109 80.8287 245.576 81.5953 246.222 82.1923C246.867 82.7892 247.666 83.1928 248.528 83.3573C249.39 83.5219 250.281 83.4409 251.099 83.1235C251.918 82.8061 252.632 82.2649 253.16 81.5611C253.689 80.8573 254.012 80.0189 254.091 79.1406C254.171 78.2622 254.005 77.3789 253.612 76.5905C253.219 75.802 252.614 75.1398 251.866 74.6786C251.119 74.2173 250.257 73.9755 249.38 73.9803H249.389ZM234.968 59.5636H238.573V70.1836H234.968V59.5636ZM241.097 59.5636H244.702V70.1836H241.097V59.5636ZM249.308 70.1927H247.217V59.5636H251.318L249.308 70.1927ZM232.453 59.5636V70.1836H229.236V59.5636H232.453ZM228.055 80.9214C227.62 80.9214 227.195 80.7917 226.833 80.5488C226.471 80.3058 226.19 79.9605 226.023 79.5565C225.857 79.1525 225.813 78.7079 225.898 78.279C225.983 77.8502 226.192 77.4562 226.5 77.147C226.807 76.8378 227.199 76.6272 227.626 76.5419C228.053 76.4566 228.495 76.5004 228.897 76.6677C229.298 76.8351 229.642 77.1184 229.884 77.482C230.125 77.8456 230.254 78.2731 230.254 78.7104C230.254 79.0031 230.196 79.2928 230.084 79.5628C229.972 79.8329 229.808 80.0778 229.6 80.2835C229.393 80.4892 229.148 80.6514 228.878 80.7609C228.608 80.8704 228.319 80.925 228.028 80.9214H228.055ZM249.416 80.9214C248.981 80.9214 248.556 80.7917 248.194 80.5488C247.833 80.3058 247.551 79.9605 247.384 79.5565C247.218 79.1525 247.174 78.7079 247.259 78.279C247.344 77.8502 247.554 77.4562 247.861 77.147C248.169 76.8378 248.561 76.6272 248.987 76.5419C249.414 76.4566 249.856 76.5004 250.258 76.6677C250.66 76.8351 251.003 77.1184 251.245 77.482C251.487 77.8456 251.615 78.2731 251.615 78.7104C251.615 79.0031 251.558 79.2928 251.446 79.5628C251.333 79.8329 251.169 80.0778 250.962 80.2835C250.755 80.4892 250.509 80.6514 250.239 80.7609C249.969 80.8704 249.68 80.925 249.389 80.9214H249.416Z" fill="#263238"/>
<path d="M255.184 65.0727C260.257 65.0727 264.369 60.9386 264.369 55.8391C264.369 50.7395 260.257 46.6055 255.184 46.6055C250.112 46.6055 246 50.7395 246 55.8391C246 60.9386 250.112 65.0727 255.184 65.0727Z" fill="white" stroke="#263238" stroke-width="2" stroke-miterlimit="10"/>
<path d="M250.939 54.7788L254.473 59.7535L260.836 51.5801" stroke="#263238" stroke-width="3" stroke-linecap="round" stroke-linejoin="round"/>
<path d="M271.183 113.107H207.64C206.146 113.107 204.936 114.325 204.936 115.826V132.136C204.936 133.638 206.146 134.855 207.64 134.855H271.183C272.676 134.855 273.887 133.638 273.887 132.136V115.826C273.887 114.325 272.676 113.107 271.183 113.107Z" fill="#92E3A9"/>
<path d="M222.429 122.395C222.287 122.236 222.21 122.029 222.213 121.815V118.045C222.213 117.9 222.213 117.765 222.213 117.665C222.228 117.554 222.253 117.445 222.285 117.339C222.317 117.236 222.373 117.143 222.447 117.067C222.525 116.994 222.617 116.939 222.718 116.904C222.854 116.857 222.997 116.836 223.141 116.84H224.728C224.959 116.825 225.191 116.825 225.422 116.84C225.632 116.874 225.837 116.932 226.035 117.012C226.214 117.089 226.379 117.196 226.521 117.33C226.66 117.48 226.765 117.66 226.828 117.855C226.912 118.093 226.952 118.345 226.945 118.598C226.963 118.853 226.92 119.109 226.819 119.344C226.719 119.578 226.564 119.786 226.368 119.948C225.889 120.284 225.311 120.446 224.728 120.411H223.7V121.77C223.703 121.983 223.626 122.19 223.484 122.35C223.42 122.426 223.34 122.488 223.249 122.53C223.159 122.572 223.061 122.594 222.961 122.594C222.863 122.602 222.765 122.589 222.673 122.554C222.581 122.52 222.498 122.465 222.429 122.395ZM224.466 119.55C224.616 119.562 224.767 119.562 224.917 119.55C225.032 119.526 225.139 119.476 225.232 119.405C225.325 119.337 225.394 119.242 225.431 119.133C225.478 118.99 225.5 118.839 225.494 118.689C225.51 118.567 225.498 118.443 225.459 118.327C225.42 118.211 225.355 118.105 225.268 118.018C225.048 117.889 224.793 117.829 224.538 117.846H223.637V119.595L224.466 119.55Z" fill="black"/>
<path d="M227.928 122.277C227.788 122.125 227.68 121.947 227.611 121.752C227.541 121.558 227.511 121.351 227.522 121.145V119.477C227.507 119.254 227.564 119.031 227.684 118.843C227.742 118.768 227.817 118.708 227.904 118.67C227.991 118.632 228.086 118.617 228.18 118.626C228.269 118.618 228.358 118.634 228.439 118.672C228.52 118.71 228.589 118.769 228.64 118.843C228.749 119.035 228.8 119.256 228.784 119.477V121.126C228.772 121.324 228.837 121.519 228.964 121.67C229.022 121.733 229.094 121.783 229.173 121.816C229.252 121.849 229.338 121.864 229.424 121.86C229.532 121.861 229.64 121.839 229.739 121.795C229.838 121.751 229.927 121.687 230.001 121.607C230.159 121.431 230.244 121.2 230.235 120.963V119.477C230.22 119.254 230.277 119.031 230.397 118.843C230.455 118.768 230.53 118.708 230.617 118.67C230.704 118.632 230.799 118.617 230.893 118.626C230.982 118.618 231.071 118.634 231.152 118.672C231.233 118.71 231.302 118.769 231.353 118.843C231.462 119.035 231.513 119.256 231.497 119.477V121.942C231.512 122.13 231.458 122.318 231.344 122.468C231.279 122.529 231.202 122.576 231.118 122.606C231.035 122.636 230.945 122.647 230.857 122.64C230.442 122.64 230.244 122.404 230.244 121.942V121.888C230.146 122.135 229.976 122.346 229.757 122.495C229.506 122.63 229.222 122.696 228.937 122.685C228.75 122.69 228.564 122.656 228.39 122.586C228.217 122.516 228.059 122.411 227.928 122.277Z" fill="black"/>
<path d="M232.426 121.788V119.25C232.422 119.106 232.47 118.964 232.561 118.852C232.638 118.748 232.75 118.677 232.877 118.652C232.999 118.63 233.124 118.63 233.246 118.652C233.37 118.683 233.478 118.757 233.553 118.861C233.644 118.97 233.692 119.108 233.688 119.25V119.395C233.724 119.295 233.769 119.198 233.823 119.105C233.886 119.011 233.956 118.92 234.03 118.834C234.114 118.741 234.215 118.667 234.328 118.616C234.44 118.561 234.563 118.534 234.688 118.535C234.777 118.531 234.864 118.553 234.941 118.598C235.012 118.626 235.073 118.677 235.112 118.743C235.149 118.804 235.174 118.872 235.184 118.942C235.207 119.016 235.207 119.095 235.184 119.169C235.168 119.239 235.141 119.307 235.103 119.368C235.065 119.435 235.009 119.488 234.941 119.522C234.868 119.558 234.788 119.577 234.706 119.577C234.451 119.575 234.202 119.655 233.994 119.803C233.898 119.876 233.821 119.97 233.77 120.079C233.718 120.188 233.693 120.308 233.697 120.428V121.806C233.714 122.024 233.664 122.243 233.553 122.431C233.494 122.502 233.419 122.557 233.334 122.592C233.249 122.627 233.157 122.64 233.066 122.63C232.642 122.639 232.426 122.359 232.426 121.788Z" fill="black"/>
<path d="M236.843 122.558C236.603 122.479 236.38 122.356 236.185 122.195C235.981 122.017 235.82 121.794 235.716 121.543C235.599 121.256 235.541 120.947 235.545 120.637C235.539 120.26 235.632 119.888 235.816 119.558C236.003 119.251 236.267 118.998 236.582 118.824C236.912 118.651 237.281 118.563 237.654 118.571C237.898 118.57 238.141 118.604 238.375 118.67C238.569 118.725 238.749 118.818 238.907 118.942C238.985 119.009 239.042 119.097 239.069 119.196C239.096 119.285 239.096 119.379 239.069 119.468C239.046 119.549 239.01 119.626 238.961 119.694C238.909 119.759 238.835 119.801 238.754 119.812C238.658 119.82 238.561 119.801 238.474 119.758C238.256 119.631 238.006 119.568 237.753 119.577C237.498 119.578 237.252 119.679 237.068 119.857C236.886 120.07 236.795 120.347 236.816 120.628C236.817 120.804 236.847 120.978 236.906 121.144C236.978 121.309 237.097 121.449 237.247 121.546C237.398 121.643 237.574 121.692 237.753 121.688C238.014 121.686 238.271 121.621 238.502 121.498C238.589 121.469 238.684 121.469 238.772 121.498C238.814 121.502 238.854 121.515 238.89 121.537C238.926 121.559 238.956 121.589 238.979 121.624C239.033 121.698 239.072 121.781 239.096 121.869C239.123 121.961 239.123 122.058 239.096 122.15C239.065 122.25 239.006 122.338 238.925 122.404C238.758 122.525 238.568 122.611 238.366 122.657C238.119 122.72 237.864 122.75 237.609 122.748C237.344 122.732 237.085 122.668 236.843 122.558Z" fill="black"/>
<path d="M239.825 121.788V117.701C239.81 117.477 239.86 117.253 239.969 117.058C240.023 116.985 240.094 116.928 240.176 116.892C240.258 116.855 240.349 116.84 240.438 116.849C240.871 116.849 241.087 117.13 241.087 117.701V119.223C241.231 118.981 241.443 118.786 241.696 118.664C241.949 118.541 242.233 118.496 242.511 118.535C242.679 118.546 242.843 118.586 242.998 118.652C243.152 118.72 243.292 118.815 243.412 118.933C243.538 119.067 243.636 119.224 243.701 119.395C243.775 119.601 243.812 119.819 243.809 120.039V121.788C243.826 122.009 243.775 122.23 243.665 122.422C243.608 122.497 243.534 122.556 243.449 122.594C243.364 122.632 243.271 122.648 243.178 122.639C242.763 122.639 242.556 122.358 242.556 121.788V120.111C242.566 119.914 242.502 119.72 242.376 119.568C242.316 119.504 242.243 119.454 242.162 119.421C242.081 119.388 241.994 119.373 241.907 119.377C241.8 119.376 241.693 119.397 241.595 119.441C241.497 119.485 241.41 119.55 241.339 119.631C241.258 119.718 241.194 119.821 241.153 119.933C241.111 120.045 241.092 120.164 241.096 120.283V121.788C241.113 122.009 241.062 122.23 240.952 122.422C240.895 122.497 240.821 122.556 240.736 122.594C240.651 122.632 240.558 122.648 240.465 122.639C240.05 122.639 239.825 122.358 239.825 121.788Z" fill="black"/>
<path d="M244.89 122.359C244.762 122.238 244.664 122.089 244.603 121.923C244.542 121.757 244.521 121.579 244.54 121.403C244.559 121.228 244.619 121.059 244.714 120.91C244.809 120.762 244.937 120.637 245.088 120.547C245.718 120.324 246.387 120.232 247.053 120.275V120.021C247.053 119.614 246.837 119.405 246.404 119.405C246.011 119.427 245.625 119.525 245.269 119.695C245.206 119.724 245.136 119.732 245.068 119.719C245 119.706 244.938 119.673 244.89 119.623C244.837 119.572 244.797 119.509 244.772 119.44C244.747 119.371 244.738 119.297 244.746 119.224C244.748 119.151 244.77 119.08 244.81 119.019C244.849 118.959 244.905 118.91 244.971 118.88C245.196 118.779 245.432 118.706 245.674 118.662C245.94 118.602 246.213 118.571 246.485 118.572C246.719 118.568 246.953 118.596 247.179 118.653C247.377 118.713 247.561 118.811 247.72 118.943C247.887 119.086 248.014 119.271 248.09 119.478C248.175 119.744 248.214 120.023 248.207 120.302V121.997C248.212 122.146 248.175 122.294 248.099 122.423C248.036 122.526 247.936 122.6 247.819 122.631C247.71 122.658 247.595 122.658 247.486 122.631C247.429 122.615 247.375 122.587 247.329 122.549C247.283 122.512 247.244 122.466 247.215 122.414C247.133 122.288 247.092 122.139 247.098 121.988V121.924C247.006 122.181 246.828 122.398 246.595 122.538C246.362 122.679 246.087 122.734 245.818 122.694C245.478 122.704 245.146 122.585 244.89 122.359ZM246.738 121.716C246.841 121.627 246.924 121.515 246.978 121.39C247.033 121.264 247.059 121.128 247.053 120.991V120.828H246.666H246.341C246.247 120.835 246.153 120.85 246.062 120.873C245.99 120.888 245.92 120.912 245.854 120.946C245.792 120.967 245.736 121.004 245.692 121.054C245.655 121.104 245.625 121.159 245.602 121.217C245.587 121.289 245.587 121.363 245.602 121.435C245.601 121.502 245.613 121.568 245.637 121.63C245.661 121.692 245.698 121.748 245.744 121.796C245.79 121.844 245.845 121.883 245.905 121.909C245.966 121.936 246.032 121.95 246.098 121.951C246.334 121.96 246.563 121.876 246.738 121.716Z" fill="black"/>
<path d="M249.172 122.205C249.106 122.154 249.056 122.084 249.028 122.005C249.001 121.929 249.001 121.846 249.028 121.77C249.053 121.699 249.093 121.634 249.145 121.58C249.199 121.521 249.273 121.485 249.352 121.48C249.446 121.473 249.539 121.492 249.623 121.534L249.767 121.616L249.983 121.725C250.065 121.76 250.149 121.787 250.236 121.806C250.348 121.834 250.463 121.852 250.578 121.86H250.849L251.11 121.815C251.189 121.796 251.261 121.755 251.317 121.697C251.345 121.669 251.366 121.635 251.38 121.597C251.394 121.56 251.401 121.52 251.398 121.48C251.396 121.44 251.384 121.401 251.364 121.366C251.343 121.331 251.315 121.302 251.281 121.281C251.176 121.204 251.057 121.152 250.93 121.126L250.38 120.982L249.884 120.827C249.757 120.779 249.633 120.722 249.515 120.655C249.403 120.602 249.302 120.529 249.217 120.438C249.148 120.349 249.096 120.247 249.064 120.139C249.018 120.005 248.997 119.864 249.001 119.722C248.993 119.54 249.035 119.359 249.123 119.199C249.21 119.039 249.339 118.907 249.497 118.816C249.901 118.583 250.368 118.488 250.831 118.544C250.985 118.551 251.139 118.572 251.29 118.607L251.624 118.698L251.912 118.825C251.998 118.863 252.07 118.926 252.119 119.006C252.168 119.074 252.191 119.158 252.183 119.242C252.172 119.318 252.148 119.392 252.11 119.459C252.066 119.524 251.998 119.57 251.921 119.586C251.829 119.608 251.734 119.608 251.642 119.586C251.384 119.487 251.114 119.42 250.84 119.387H250.533C250.433 119.395 250.335 119.422 250.245 119.468C250.206 119.483 250.172 119.509 250.148 119.543C250.124 119.576 250.111 119.617 250.11 119.659C250.108 119.702 250.117 119.746 250.136 119.785C250.155 119.825 250.183 119.859 250.218 119.885C250.327 119.946 250.446 119.989 250.569 120.012L251.11 120.148C251.297 120.197 251.48 120.258 251.66 120.329C251.804 120.386 251.941 120.462 252.065 120.556C252.186 120.645 252.282 120.764 252.345 120.9C252.423 121.1 252.451 121.315 252.427 121.528C252.404 121.741 252.329 121.946 252.21 122.123C252.052 122.338 251.831 122.496 251.579 122.576C251.289 122.674 250.983 122.714 250.677 122.694C250.139 122.681 249.616 122.511 249.172 122.205Z" fill="black"/>
<path d="M253.985 122.459C253.667 122.31 253.403 122.067 253.228 121.761C253.032 121.414 252.936 121.019 252.948 120.619C252.941 120.253 253.028 119.891 253.201 119.568C253.377 119.259 253.632 119.003 253.94 118.825C254.274 118.643 254.65 118.553 255.03 118.563C255.321 118.553 255.609 118.606 255.878 118.717C256.106 118.806 256.308 118.952 256.464 119.142C256.606 119.327 256.712 119.535 256.779 119.759C256.853 119.999 256.89 120.25 256.887 120.502C256.887 120.719 256.752 120.828 256.491 120.828H254.192C254.181 120.964 254.201 121.102 254.25 121.23C254.299 121.357 254.377 121.472 254.477 121.565C254.576 121.659 254.696 121.728 254.826 121.768C254.956 121.809 255.094 121.818 255.229 121.797C255.414 121.798 255.598 121.761 255.77 121.689C255.935 121.626 256.087 121.534 256.22 121.417C256.271 121.388 256.329 121.373 256.387 121.373C256.445 121.373 256.503 121.388 256.554 121.417C256.612 121.449 256.663 121.492 256.704 121.546C256.744 121.599 256.773 121.66 256.788 121.725C256.813 121.787 256.818 121.854 256.804 121.919C256.789 121.984 256.756 122.042 256.707 122.087C256.625 122.163 256.537 122.233 256.446 122.296L256.121 122.486C255.976 122.559 255.821 122.611 255.661 122.64C255.471 122.677 255.278 122.696 255.085 122.695C254.705 122.701 254.329 122.621 253.985 122.459ZM255.833 120.248C255.833 119.998 255.765 119.754 255.634 119.541C255.564 119.453 255.472 119.384 255.369 119.339C255.265 119.295 255.152 119.277 255.039 119.287C254.926 119.282 254.813 119.304 254.71 119.352C254.606 119.399 254.515 119.47 254.445 119.559C254.292 119.757 254.207 119.998 254.201 120.248H255.833Z" fill="black"/>
<path d="M218.717 130.206C218.477 130.127 218.254 130.004 218.059 129.844C217.855 129.666 217.694 129.442 217.591 129.191C217.47 128.905 217.409 128.596 217.41 128.285C217.406 127.91 217.503 127.541 217.69 127.216C217.873 126.906 218.134 126.65 218.447 126.473C218.781 126.3 219.153 126.213 219.528 126.219C219.772 126.219 220.015 126.253 220.249 126.319C220.442 126.376 220.622 126.468 220.781 126.591C220.859 126.657 220.916 126.745 220.943 126.844C220.97 126.933 220.97 127.028 220.943 127.116C220.917 127.196 220.88 127.272 220.835 127.343C220.781 127.409 220.704 127.451 220.619 127.46C220.526 127.467 220.432 127.448 220.349 127.406C220.127 127.278 219.874 127.215 219.618 127.225C219.366 127.228 219.124 127.329 218.942 127.506C218.85 127.61 218.781 127.732 218.737 127.865C218.694 127.997 218.678 128.137 218.69 128.276C218.691 128.452 218.721 128.627 218.78 128.793C218.847 128.95 218.956 129.085 219.096 129.182C219.253 129.288 219.439 129.342 219.628 129.336C219.888 129.333 220.145 129.268 220.376 129.146C220.458 129.101 220.553 129.085 220.646 129.101C220.688 129.105 220.728 129.118 220.764 129.14C220.8 129.162 220.83 129.192 220.853 129.227C220.907 129.301 220.946 129.384 220.97 129.472C220.997 129.564 220.997 129.661 220.97 129.753C220.939 129.853 220.88 129.941 220.799 130.007C220.632 130.128 220.442 130.214 220.24 130.26C219.993 130.323 219.738 130.353 219.483 130.351C219.221 130.35 218.962 130.3 218.717 130.206Z" fill="black"/>
<path d="M222.105 129.771C221.913 129.574 221.763 129.34 221.666 129.083C221.568 128.826 221.524 128.551 221.537 128.276C221.535 128.001 221.58 127.728 221.673 127.469C221.762 127.225 221.897 127.001 222.069 126.808C222.261 126.609 222.495 126.457 222.754 126.364C223.063 126.251 223.39 126.195 223.719 126.2C224.011 126.18 224.305 126.22 224.582 126.316C224.86 126.413 225.115 126.564 225.332 126.762C225.525 126.962 225.676 127.199 225.775 127.459C225.874 127.72 225.92 127.997 225.909 128.276C225.911 128.55 225.865 128.823 225.774 129.082C225.683 129.322 225.545 129.541 225.368 129.725C225.178 129.926 224.943 130.078 224.683 130.169C224.374 130.282 224.047 130.338 223.719 130.332C223.426 130.354 223.132 130.316 222.854 130.219C222.577 130.123 222.322 129.97 222.105 129.771ZM224.377 129.182C224.546 128.911 224.628 128.595 224.611 128.276C224.625 127.957 224.544 127.641 224.377 127.369C224.299 127.268 224.2 127.186 224.086 127.129C223.971 127.073 223.846 127.043 223.719 127.043C223.591 127.043 223.466 127.073 223.352 127.129C223.238 127.186 223.138 127.268 223.061 127.369C222.897 127.642 222.818 127.958 222.835 128.276C222.815 128.594 222.894 128.911 223.061 129.182C223.137 129.285 223.236 129.369 223.351 129.426C223.465 129.484 223.591 129.514 223.719 129.514C223.847 129.514 223.973 129.484 224.087 129.426C224.201 129.369 224.3 129.285 224.377 129.182Z" fill="black"/>
<path d="M226.846 130.07C226.737 129.878 226.686 129.657 226.702 129.436V127.098C226.689 126.88 226.739 126.663 226.846 126.473C226.905 126.404 226.979 126.351 227.062 126.316C227.145 126.282 227.234 126.267 227.324 126.273C227.412 126.264 227.5 126.276 227.583 126.306C227.666 126.336 227.741 126.385 227.803 126.449C227.864 126.512 227.911 126.589 227.939 126.673C227.967 126.757 227.975 126.847 227.964 126.935V126.989C228.047 126.731 228.224 126.515 228.46 126.382C228.717 126.242 229.006 126.173 229.298 126.183C229.43 126.172 229.562 126.172 229.694 126.183C229.815 126.21 229.933 126.249 230.046 126.301C230.162 126.367 230.263 126.457 230.343 126.563C230.429 126.702 230.496 126.851 230.542 127.007C230.618 126.847 230.715 126.698 230.83 126.563C230.937 126.454 231.062 126.365 231.2 126.301C231.327 126.246 231.46 126.207 231.596 126.183C231.737 126.173 231.879 126.173 232.02 126.183C232.197 126.175 232.373 126.205 232.538 126.271C232.702 126.336 232.851 126.436 232.975 126.563C233.238 126.865 233.371 127.26 233.345 127.66V129.409C233.357 129.63 233.307 129.849 233.201 130.043C233.144 130.118 233.07 130.177 232.985 130.215C232.9 130.253 232.807 130.269 232.714 130.26C232.29 130.26 232.083 129.98 232.083 129.409V127.732C232.095 127.539 232.034 127.348 231.912 127.198C231.856 127.133 231.787 127.081 231.709 127.046C231.631 127.012 231.546 126.995 231.461 126.998C231.354 126.996 231.248 127.016 231.148 127.056C231.049 127.097 230.959 127.157 230.884 127.234C230.725 127.409 230.641 127.64 230.65 127.877V129.409C230.669 129.631 230.615 129.854 230.497 130.043C230.44 130.118 230.366 130.177 230.281 130.215C230.196 130.253 230.103 130.269 230.01 130.26C229.595 130.26 229.388 129.98 229.388 129.409V127.895C229.402 127.681 229.345 127.467 229.226 127.288C229.173 127.217 229.103 127.16 229.023 127.122C228.943 127.084 228.855 127.066 228.766 127.071C228.554 127.063 228.347 127.137 228.189 127.279C228.111 127.353 228.05 127.443 228.011 127.544C227.973 127.644 227.956 127.752 227.964 127.859V129.481C227.964 130.052 227.748 130.333 227.306 130.333C227.213 130.336 227.12 130.313 227.039 130.267C226.958 130.22 226.891 130.152 226.846 130.07Z" fill="black"/>
<path d="M234.419 131.52C234.316 131.325 234.269 131.105 234.284 130.885V127.161C234.272 126.931 234.325 126.701 234.437 126.5C234.49 126.42 234.563 126.356 234.648 126.313C234.734 126.27 234.829 126.25 234.924 126.255C235.008 126.251 235.091 126.264 235.169 126.296C235.247 126.327 235.317 126.375 235.375 126.436C235.484 126.557 235.543 126.717 235.537 126.88V126.989C235.643 126.746 235.827 126.545 236.06 126.418C236.391 126.254 236.766 126.2 237.131 126.263C237.495 126.327 237.83 126.505 238.088 126.772C238.438 127.211 238.612 127.768 238.574 128.33C238.578 128.638 238.529 128.945 238.43 129.236C238.353 129.478 238.22 129.699 238.042 129.88C237.884 130.041 237.693 130.168 237.484 130.251C237.266 130.339 237.033 130.382 236.799 130.378C236.529 130.387 236.262 130.324 236.023 130.197C235.811 130.089 235.64 129.914 235.537 129.698V130.949C235.537 131.52 235.32 131.801 234.888 131.801C234.792 131.802 234.697 131.776 234.614 131.727C234.531 131.677 234.464 131.605 234.419 131.52ZM237.123 129.146C237.291 128.875 237.373 128.559 237.357 128.24C237.372 128.095 237.372 127.949 237.357 127.805C237.326 127.669 237.277 127.538 237.213 127.415C237.149 127.294 237.052 127.193 236.934 127.125C236.791 127.028 236.62 126.98 236.447 126.989C235.816 126.989 235.546 127.406 235.546 128.23C235.531 128.549 235.613 128.865 235.78 129.137C235.861 129.237 235.965 129.317 236.082 129.371C236.199 129.424 236.327 129.45 236.456 129.445C236.583 129.458 236.712 129.44 236.83 129.391C236.948 129.342 237.052 129.264 237.132 129.164L237.123 129.146Z" fill="black"/>
<path d="M239.574 130.07C239.467 129.877 239.417 129.657 239.43 129.436V125.349C239.417 125.128 239.467 124.908 239.574 124.715C239.625 124.641 239.694 124.582 239.774 124.544C239.855 124.505 239.945 124.489 240.034 124.497C240.128 124.489 240.222 124.505 240.309 124.543C240.395 124.581 240.471 124.64 240.529 124.715C240.651 124.903 240.708 125.125 240.691 125.349V129.436C240.708 129.659 240.651 129.882 240.529 130.07C240.471 130.145 240.395 130.204 240.309 130.242C240.222 130.28 240.128 130.295 240.034 130.287C239.945 130.295 239.855 130.279 239.774 130.241C239.694 130.203 239.625 130.144 239.574 130.07Z" fill="black"/>
<path d="M242.521 130.106C242.201 129.96 241.936 129.716 241.764 129.409C241.565 129.062 241.466 128.667 241.475 128.267C241.471 127.9 241.561 127.538 241.737 127.216C241.908 126.903 242.165 126.645 242.476 126.473C242.807 126.291 243.18 126.2 243.557 126.21C243.85 126.201 244.142 126.253 244.414 126.364C244.641 126.451 244.84 126.598 244.99 126.79C245.137 126.972 245.247 127.182 245.315 127.406C245.389 127.647 245.426 127.897 245.423 128.149C245.423 128.367 245.288 128.475 245.017 128.475H242.755C242.744 128.612 242.764 128.749 242.813 128.877C242.862 129.005 242.94 129.12 243.039 129.213C243.139 129.306 243.259 129.376 243.389 129.416C243.519 129.456 243.657 129.466 243.792 129.445C243.974 129.445 244.155 129.408 244.323 129.336C244.49 129.272 244.646 129.18 244.783 129.064C244.832 129.036 244.888 129.021 244.945 129.021C245.002 129.021 245.058 129.036 245.108 129.064C245.169 129.094 245.222 129.137 245.264 129.19C245.306 129.244 245.336 129.306 245.351 129.372C245.372 129.435 245.375 129.503 245.359 129.567C245.343 129.631 245.309 129.69 245.261 129.735C245.182 129.81 245.097 129.88 245.008 129.943L244.684 130.134C244.536 130.208 244.378 130.26 244.215 130.288C244.025 130.326 243.832 130.344 243.638 130.342C243.253 130.353 242.87 130.272 242.521 130.106ZM244.369 127.895C244.367 127.645 244.295 127.4 244.161 127.189C244.091 127.102 244.002 127.033 243.899 126.989C243.797 126.945 243.686 126.926 243.575 126.935C243.461 126.93 243.346 126.952 243.241 126.999C243.137 127.046 243.044 127.117 242.971 127.207C242.819 127.404 242.734 127.646 242.728 127.895H244.369Z" fill="black"/>
<path d="M246.803 129.979C246.556 129.646 246.44 129.233 246.478 128.819V127.125H246.235C246.176 127.129 246.117 127.122 246.062 127.103C246.006 127.084 245.954 127.055 245.91 127.016C245.83 126.917 245.791 126.79 245.802 126.663C245.794 126.605 245.8 126.547 245.819 126.492C245.838 126.437 245.869 126.388 245.91 126.347C245.951 126.307 246.001 126.276 246.056 126.259C246.111 126.241 246.169 126.237 246.226 126.246H246.559L246.649 125.475C246.694 124.977 246.902 124.732 247.253 124.732C247.605 124.732 247.74 125.004 247.74 125.539V126.246H248.227C248.506 126.246 248.641 126.4 248.641 126.699C248.647 126.756 248.64 126.814 248.621 126.869C248.603 126.924 248.573 126.974 248.533 127.016C248.488 127.056 248.435 127.086 248.377 127.104C248.32 127.123 248.26 127.13 248.2 127.125H247.74V128.538C247.721 128.781 247.764 129.024 247.866 129.245C247.938 129.381 248.083 129.435 248.299 129.426H248.524C248.56 129.422 248.596 129.426 248.63 129.436C248.664 129.447 248.696 129.466 248.722 129.49C248.779 129.536 248.82 129.6 248.84 129.671C248.849 129.743 248.849 129.816 248.84 129.888C248.833 129.966 248.809 130.04 248.768 130.106C248.731 130.169 248.674 130.217 248.605 130.242C248.313 130.329 248.008 130.366 247.704 130.351C247.537 130.352 247.371 130.32 247.216 130.256C247.061 130.192 246.921 130.098 246.803 129.979Z" fill="black"/>
<path d="M250.372 130.106C250.054 129.958 249.789 129.714 249.615 129.409C249.419 129.061 249.322 128.666 249.335 128.267C249.327 127.901 249.414 127.538 249.587 127.216C249.764 126.907 250.019 126.65 250.327 126.473C250.661 126.291 251.037 126.2 251.417 126.21C251.707 126.201 251.996 126.253 252.264 126.364C252.494 126.451 252.696 126.598 252.85 126.79C252.994 126.973 253.101 127.182 253.166 127.406C253.24 127.647 253.277 127.897 253.274 128.149C253.274 128.367 253.139 128.475 252.877 128.475H250.579C250.568 128.612 250.588 128.749 250.637 128.877C250.686 129.005 250.764 129.12 250.863 129.213C250.963 129.306 251.083 129.376 251.213 129.416C251.343 129.456 251.481 129.466 251.615 129.445C251.801 129.446 251.985 129.409 252.156 129.336C252.32 129.269 252.472 129.178 252.607 129.064C252.658 129.036 252.715 129.021 252.774 129.021C252.832 129.021 252.889 129.036 252.94 129.064C252.999 129.096 253.05 129.14 253.091 129.193C253.131 129.246 253.16 129.307 253.175 129.372C253.2 129.434 253.205 129.502 253.191 129.566C253.176 129.631 253.142 129.69 253.094 129.735C253.011 129.81 252.924 129.88 252.832 129.943L252.508 130.134C252.363 130.206 252.208 130.258 252.048 130.288C251.858 130.325 251.665 130.343 251.471 130.342C251.092 130.349 250.716 130.268 250.372 130.106ZM252.219 127.895C252.22 127.646 252.151 127.401 252.021 127.189C251.951 127.102 251.861 127.033 251.759 126.989C251.657 126.945 251.546 126.926 251.435 126.935C251.32 126.929 251.206 126.951 251.101 126.998C250.996 127.045 250.904 127.117 250.831 127.207C250.679 127.404 250.594 127.646 250.588 127.895H252.219Z" fill="black"/>
<path d="M254.373 129.825C254.03 129.385 253.86 128.834 253.895 128.276C253.891 127.968 253.937 127.662 254.03 127.37C254.113 127.133 254.245 126.917 254.418 126.735C254.576 126.571 254.766 126.442 254.977 126.355C255.196 126.274 255.428 126.234 255.662 126.237C255.932 126.227 256.199 126.289 256.437 126.418C256.651 126.523 256.823 126.699 256.924 126.917V125.34C256.91 125.115 256.964 124.891 257.077 124.697C257.139 124.625 257.217 124.568 257.304 124.532C257.392 124.496 257.487 124.481 257.582 124.488C257.669 124.482 257.757 124.498 257.837 124.534C257.918 124.571 257.988 124.626 258.041 124.697C258.144 124.895 258.191 125.117 258.176 125.34V129.39C258.187 129.621 258.134 129.85 258.023 130.052C257.971 130.13 257.9 130.193 257.816 130.234C257.732 130.275 257.639 130.294 257.545 130.288C257.461 130.293 257.376 130.281 257.297 130.251C257.218 130.222 257.146 130.175 257.086 130.115C256.975 129.992 256.916 129.829 256.924 129.662C256.809 129.907 256.622 130.11 256.388 130.243C256.154 130.376 255.884 130.433 255.617 130.405C255.379 130.41 255.144 130.36 254.928 130.259C254.713 130.159 254.523 130.01 254.373 129.825ZM256.924 128.303C256.941 127.983 256.856 127.665 256.68 127.397C256.601 127.294 256.498 127.211 256.381 127.156C256.263 127.1 256.134 127.074 256.004 127.08C255.871 127.073 255.739 127.102 255.621 127.162C255.502 127.222 255.402 127.313 255.328 127.424C255.163 127.696 255.082 128.012 255.094 128.33C255.094 128.48 255.112 128.629 255.148 128.774C255.177 128.913 255.225 129.048 255.292 129.173C255.354 129.297 255.447 129.404 255.563 129.481C255.688 129.555 255.832 129.592 255.977 129.59C256.608 129.584 256.924 129.155 256.924 128.303Z" fill="black"/>
<path d="M259.476 124.977C259.445 124.845 259.463 124.706 259.526 124.586C259.588 124.466 259.692 124.373 259.818 124.324C259.944 124.261 260.083 124.228 260.224 124.228C260.365 124.228 260.504 124.261 260.629 124.324C260.755 124.375 260.858 124.468 260.923 124.587C260.987 124.706 261.007 124.844 260.981 124.977L260.611 127.922C260.601 128.031 260.553 128.134 260.476 128.212C260.408 128.277 260.318 128.313 260.224 128.312C260.179 128.312 260.134 128.303 260.092 128.286C260.051 128.269 260.013 128.244 259.98 128.212C259.942 128.169 259.914 128.119 259.896 128.064C259.879 128.009 259.874 127.952 259.881 127.895L259.476 124.977ZM259.764 130.115C259.699 130.054 259.647 129.979 259.613 129.896C259.579 129.813 259.563 129.724 259.566 129.634C259.564 129.546 259.58 129.458 259.613 129.375C259.645 129.293 259.694 129.218 259.755 129.154C259.816 129.088 259.89 129.037 259.972 129.002C260.055 128.968 260.144 128.952 260.233 128.955C260.32 128.953 260.406 128.97 260.486 129.002C260.567 129.035 260.64 129.084 260.702 129.145C260.768 129.208 260.82 129.284 260.854 129.368C260.888 129.453 260.904 129.543 260.9 129.634C260.901 129.813 260.833 129.985 260.711 130.115C260.649 130.177 260.575 130.227 260.494 130.261C260.412 130.295 260.325 130.313 260.237 130.313C260.149 130.313 260.062 130.295 259.981 130.261C259.9 130.227 259.826 130.177 259.764 130.115Z" fill="black"/>
<path d="M190.631 164.24H288.307" stroke="#263238" stroke-linecap="round" stroke-linejoin="round"/>
<path d="M190.631 175.966H288.307" stroke="#263238" stroke-linecap="round" stroke-linejoin="round"/>
<path d="M190.631 187.691H288.307" stroke="#263238" stroke-linecap="round" stroke-linejoin="round"/>
<path d="M190.631 199.417H288.307" stroke="#263238" stroke-linecap="round" stroke-linejoin="round"/>
<path d="M297.204 8.62891H182.962C181.195 8.62891 179.501 9.33442 178.252 10.5902C177.003 11.8461 176.301 13.5493 176.301 15.3253V20.1097H249.966L253.851 15.7149H303.865V15.3253C303.865 13.5493 303.163 11.8461 301.914 10.5902C300.665 9.33442 298.971 8.62891 297.204 8.62891Z" fill="#92E3A9"/>
</g>
<path d="M297.206 8.62891H182.964C179.285 8.62891 176.303 11.627 176.303 15.3253V217.232C176.303 220.93 179.285 223.929 182.964 223.929H297.206C300.885 223.929 303.867 220.93 303.867 217.232V15.3253C303.867 11.627 300.885 8.62891 297.206 8.62891Z" stroke="#263238" stroke-linecap="round" stroke-linejoin="round"/>
<path d="M310.113 195.403V202.271C310.113 202.358 310.13 202.444 310.163 202.524C310.196 202.605 310.245 202.678 310.306 202.739C310.367 202.8 310.44 202.849 310.519 202.882C310.599 202.916 310.685 202.933 310.771 202.933C310.858 202.934 310.944 202.918 311.024 202.885C311.105 202.852 311.178 202.803 311.239 202.742C311.301 202.68 311.349 202.607 311.382 202.526C311.414 202.445 311.43 202.358 311.429 202.271V195.403C311.429 195.227 311.36 195.059 311.236 194.935C311.113 194.811 310.946 194.741 310.771 194.741C310.597 194.741 310.429 194.811 310.306 194.935C310.183 195.059 310.113 195.227 310.113 195.403Z" fill="white"/>
<path d="M310.113 169.07V183.215C310.129 183.376 310.207 183.525 310.33 183.63C310.452 183.735 310.611 183.787 310.771 183.777C310.932 183.79 311.092 183.738 311.215 183.632C311.339 183.527 311.415 183.377 311.429 183.215V169.07C311.415 168.909 311.339 168.759 311.215 168.653C311.092 168.548 310.932 168.496 310.771 168.509C310.611 168.498 310.452 168.551 310.33 168.656C310.207 168.761 310.129 168.909 310.113 169.07Z" fill="white"/>
<path d="M37.4104 211.07C37.4104 211.07 41.0156 202.009 29.001 178.449C16.9864 154.889 28.3971 116.831 28.3971 116.831" stroke="#92E3A9" stroke-miterlimit="10"/>
<path d="M44.6214 213.489C44.6214 213.489 48.8306 204.427 44.0175 191.134C39.2045 177.841 40.4844 170.293 40.4844 170.293" stroke="#92E3A9" stroke-miterlimit="10"/>
<path d="M26.3429 172.423C26.3429 172.423 16.9782 160.933 13.3729 147.051C9.76758 133.169 9.76758 126.518 9.76758 126.518" stroke="#92E3A9" stroke-miterlimit="10"/>
<path d="M32.0012 208.651C32.0012 208.651 27.792 203.214 26.5932 186.903C25.8979 176.938 26.9131 166.927 29.5946 157.309" stroke="#92E3A9" stroke-miterlimit="10"/>
<path d="M27.3781 259.874H48.7665L51.4344 206.974H24.7012L27.3781 259.874Z" fill="white"/>
<path opacity="0.17" d="M27.3781 259.874H48.7665L51.4344 206.974H24.7012L27.3781 259.874Z" fill="black"/>
<path d="M32.6965 178.394C32.6965 178.757 33.2373 179.029 33.3274 179.373C33.4176 179.717 33.1291 180.197 33.2643 180.524C33.3995 180.85 33.9403 180.986 34.1657 181.294C34.391 181.602 34.1657 182.146 34.4 182.427C34.6344 182.707 35.1751 182.698 35.4275 182.952C35.6799 183.206 35.6709 183.768 35.9503 183.985C36.2297 184.203 36.7705 184.049 37.0769 184.23C37.3834 184.411 37.5186 184.955 37.8431 185.091C38.1675 185.227 38.6543 184.937 38.9968 185.027C39.3393 185.118 39.6096 185.607 39.9612 185.661C40.3127 185.716 40.7003 185.299 41.0608 185.299C41.4213 185.299 41.7999 185.707 42.1514 185.661C42.5029 185.616 42.7733 185.118 43.1158 185.027C43.4583 184.937 43.945 185.227 44.2695 185.091C44.594 184.955 44.7292 184.402 45.0356 184.23C45.3421 184.058 45.8828 184.23 46.1623 183.985C46.4417 183.74 46.4327 183.206 46.685 182.952C46.9374 182.698 47.4962 182.717 47.7125 182.427C47.9288 182.137 47.7666 181.611 47.9469 181.294C48.1271 180.977 48.6679 180.859 48.8482 180.524C49.0285 180.188 48.695 179.717 48.7941 179.373C48.8933 179.029 49.371 178.757 49.416 178.394C49.4611 178.032 49.0645 177.66 49.0645 177.298C49.0645 176.935 49.4611 176.546 49.416 176.201C49.371 175.857 48.8843 175.567 48.7941 175.223C48.704 174.878 48.9924 174.398 48.8572 174.072C48.722 173.746 48.1722 173.61 47.9559 173.302C47.7396 172.994 47.9559 172.45 47.7215 172.169C47.4872 171.888 46.9464 171.897 46.694 171.643C46.4417 171.39 46.4597 170.828 46.1713 170.61C45.8829 170.393 45.3601 170.547 45.0446 170.366C44.7292 170.185 44.612 169.641 44.2785 169.505C43.945 169.369 43.4763 169.659 43.1248 169.568C42.7733 169.478 42.5209 168.988 42.1604 168.934C41.7999 168.88 41.4303 169.297 41.0698 169.297C40.7093 169.297 40.3217 168.889 39.9702 168.934C39.6187 168.979 39.3483 169.478 39.0058 169.568C38.6633 169.659 38.1856 169.369 37.8611 169.505C37.5366 169.641 37.3924 170.185 37.0859 170.366C36.7795 170.547 36.2477 170.366 35.9593 170.61C35.6709 170.855 35.6889 171.39 35.4365 171.643C35.1842 171.897 34.6344 171.879 34.418 172.16C34.2017 172.441 34.3549 172.985 34.1747 173.293C33.9944 173.601 33.4536 173.737 33.2734 174.072C33.0931 174.407 33.4266 174.878 33.3365 175.223C33.2463 175.567 32.7506 175.839 32.7055 176.192C32.6605 176.546 33.0661 176.935 33.0661 177.298C33.0661 177.66 32.6514 178.05 32.6965 178.394ZM21.3579 154.581C21.3579 154.119 20.8441 153.675 20.9072 153.194C20.9703 152.714 21.5832 152.397 21.7004 151.962C21.8176 151.527 21.448 150.92 21.6193 150.512C21.7905 150.104 22.4755 149.923 22.7009 149.534C22.9262 149.144 22.7009 148.464 22.9983 148.111C23.2957 147.757 23.9807 147.767 24.2962 147.449C24.6117 147.132 24.5936 146.425 24.9542 146.145C25.3147 145.864 25.9817 146.072 26.3692 145.846C26.7568 145.619 26.919 144.939 27.3427 144.758C27.7663 144.577 28.3521 144.958 28.7938 144.84C29.2354 144.722 29.5599 144.097 30.0106 144.042C30.4612 143.988 30.9119 144.495 31.3896 144.495C31.8673 144.495 32.2909 143.979 32.7686 144.042C33.2463 144.106 33.5528 144.722 33.9854 144.84C34.418 144.958 35.0219 144.586 35.4365 144.758C35.8511 144.93 36.0134 145.619 36.4009 145.846C36.7885 146.072 37.4645 145.846 37.825 146.145C38.1856 146.444 38.1585 147.132 38.483 147.449C38.8075 147.767 39.5015 147.748 39.7719 148.111C40.0423 148.473 39.853 149.144 40.0783 149.534C40.3037 149.923 40.9797 150.086 41.1509 150.512C41.3222 150.938 40.9616 151.527 41.0788 151.971C41.196 152.415 41.8089 152.741 41.872 153.194C41.9351 153.647 41.4123 154.1 41.4123 154.581C41.4123 155.061 41.926 155.487 41.872 155.967C41.8179 156.447 41.196 156.756 41.0788 157.19C40.9616 157.625 41.3222 158.233 41.1509 158.649C40.9797 159.066 40.2947 159.229 40.0783 159.619C39.862 160.009 40.0783 160.688 39.7719 161.051C39.4654 161.413 38.7985 161.386 38.474 161.712C38.1495 162.038 38.1765 162.736 37.825 163.008C37.4735 163.28 36.7885 163.089 36.4009 163.316C36.0134 163.543 35.8511 164.222 35.4365 164.394C35.0219 164.566 34.418 164.204 33.9854 164.322C33.5528 164.44 33.2193 165.056 32.7686 165.119C32.318 165.183 31.8673 164.657 31.3896 164.657C30.9119 164.657 30.4883 165.174 30.0106 165.119C29.5329 165.065 29.2174 164.44 28.7848 164.322C28.3521 164.204 27.7483 164.566 27.3427 164.394C26.9371 164.222 26.7568 163.533 26.3692 163.316C25.9817 163.099 25.3057 163.316 24.9542 163.008C24.6026 162.7 24.6117 162.029 24.2962 161.703C23.9807 161.377 23.2777 161.404 22.9983 161.051C22.7189 160.697 22.9262 160.009 22.7009 159.619C22.4755 159.229 21.7995 159.066 21.6193 158.649C21.439 158.233 21.8085 157.625 21.7004 157.19C21.5922 156.756 20.9613 156.42 20.9072 155.967C20.8531 155.514 21.3579 155.079 21.3579 154.581ZM20.1321 195.104C20.1321 194.641 19.6273 194.197 19.6814 193.717C19.7355 193.237 20.3574 192.929 20.4746 192.494C20.5918 192.059 20.2222 191.452 20.3935 191.035C20.5647 190.618 21.2948 190.446 21.4751 190.056C21.6553 189.667 21.4751 188.987 21.7725 188.634C22.0699 188.28 22.7549 188.289 23.0704 187.972C23.3859 187.655 23.3678 186.948 23.7284 186.667C24.0889 186.386 24.7559 186.595 25.1434 186.368C25.531 186.142 25.7023 185.462 26.1169 185.281C26.5315 185.1 27.1263 185.48 27.568 185.362C28.0096 185.245 28.3341 184.628 28.7848 184.565C29.2354 184.502 29.6861 185.018 30.1638 185.018C30.6415 185.018 31.0651 184.511 31.5428 184.565C32.0205 184.619 32.327 185.245 32.7596 185.362C33.1922 185.48 33.7961 185.109 34.2107 185.281C34.6253 185.453 34.7876 186.142 35.1751 186.368C35.5627 186.595 36.2387 186.368 36.5992 186.676C36.9598 186.984 36.9327 187.655 37.2572 187.972C37.5817 188.289 38.2757 188.28 38.5461 188.634C38.8165 188.987 38.6272 189.667 38.8525 190.065C39.0779 190.464 39.7539 190.618 39.9341 191.035C40.1144 191.452 39.7358 192.05 39.853 192.494C39.9702 192.938 40.5831 193.264 40.6462 193.717C40.7093 194.17 40.1955 194.623 40.1955 195.104C40.1955 195.584 40.7003 196.01 40.6462 196.49C40.5921 196.97 39.9702 197.278 39.853 197.713C39.7358 198.148 40.1054 198.755 39.9341 199.172C39.7629 199.589 39.0328 199.761 38.8525 200.151C38.6723 200.54 38.8525 201.22 38.5461 201.573C38.2396 201.927 37.5727 201.918 37.2572 202.235C36.9417 202.552 36.9507 203.259 36.5992 203.54C36.2477 203.821 35.5627 203.612 35.1751 203.839C34.7876 204.065 34.6253 204.745 34.2107 204.926C33.7961 205.107 33.1922 204.727 32.7596 204.845C32.327 204.962 31.9935 205.578 31.5428 205.642C31.0922 205.705 30.6415 205.189 30.1638 205.189C29.6861 205.189 29.2625 205.696 28.7848 205.642C28.3071 205.588 27.9916 204.962 27.568 204.845C27.1444 204.727 26.5315 205.098 26.1169 204.926C25.7023 204.754 25.531 204.065 25.1434 203.839C24.7559 203.612 24.0799 203.839 23.7284 203.531C23.3768 203.223 23.3859 202.552 23.0704 202.235C22.7549 201.918 22.0519 201.936 21.7725 201.573C21.4931 201.211 21.7004 200.54 21.4751 200.142C21.2497 199.743 20.5737 199.589 20.3935 199.172C20.2132 198.755 20.5918 198.157 20.4746 197.713C20.3574 197.269 19.7355 196.943 19.6814 196.49C19.6273 196.037 20.1321 195.566 20.1321 195.104ZM40.8625 200.857C40.8625 200.558 40.3397 200.223 40.3758 199.951C40.4118 199.68 41.0067 199.462 41.0788 199.172C41.1509 198.882 40.7453 198.429 40.8535 198.157C40.9616 197.885 41.5835 197.849 41.7548 197.595C41.926 197.342 41.6196 196.78 41.7548 196.544C41.89 196.309 42.5389 196.445 42.7462 196.236C42.9536 196.028 42.8274 195.412 43.0617 195.23C43.2961 195.049 43.8459 195.339 44.0982 195.185C44.3506 195.031 44.3867 194.424 44.6571 194.279C44.9274 194.134 45.3871 194.578 45.6755 194.505C45.964 194.433 46.1442 193.835 46.4417 193.799C46.7391 193.762 47.0636 194.279 47.343 194.279C47.6224 194.279 47.9739 193.762 48.2443 193.799C48.5147 193.835 48.731 194.424 49.0195 194.505C49.3079 194.587 49.7585 194.161 50.0379 194.279C50.3174 194.397 50.3354 195.013 50.5968 195.185C50.8581 195.357 51.3989 195.058 51.6333 195.239C51.8676 195.421 51.7324 196.019 51.9487 196.236C52.1651 196.454 52.7599 196.309 52.9402 196.544C53.1205 196.78 52.832 197.333 52.9853 197.595C53.1385 197.858 53.7514 197.876 53.8866 198.157C54.0218 198.438 53.5891 198.891 53.6613 199.181C53.7334 199.471 54.3282 199.652 54.3643 199.951C54.4003 200.25 53.8866 200.577 53.8866 200.857C53.8866 201.138 54.4003 201.501 54.3643 201.764C54.3282 202.026 53.7424 202.253 53.6613 202.534C53.5801 202.815 54.0038 203.286 53.8866 203.558C53.7694 203.83 53.1565 203.866 52.9853 204.12C52.814 204.373 53.1205 204.926 52.9402 205.162C52.7599 205.397 52.156 205.27 51.9397 205.479C51.7234 205.687 51.8676 206.294 51.6333 206.476C51.3989 206.657 50.8491 206.376 50.5877 206.521C50.3264 206.666 50.3083 207.291 50.0289 207.427C49.7495 207.563 49.3079 207.119 49.0195 207.201C48.731 207.282 48.5418 207.862 48.2443 207.907C47.9469 207.953 47.6224 207.418 47.343 207.418C47.0636 207.418 46.7121 207.944 46.4417 207.907C46.1713 207.871 45.964 207.273 45.6755 207.201C45.3871 207.128 44.9274 207.536 44.6571 207.427C44.3867 207.318 44.3596 206.693 44.0982 206.521C43.8368 206.349 43.2961 206.657 43.0617 206.476C42.8274 206.294 42.9536 205.687 42.7462 205.479C42.5389 205.27 41.9351 205.397 41.7548 205.162C41.5745 204.926 41.8539 204.373 41.7548 204.12C41.6556 203.866 40.9887 203.83 40.8535 203.558C40.7183 203.286 41.1599 202.824 41.0788 202.534C40.9977 202.244 40.4208 202.063 40.3758 201.764C40.3307 201.465 40.8625 201.166 40.8625 200.857ZM18.9514 117.973C18.9514 117.51 18.4376 117.021 18.5007 116.577C18.5638 116.133 19.1767 115.789 19.2848 115.354C19.393 114.919 19.0415 114.312 19.2127 113.904C19.384 113.496 20.1141 113.315 20.2943 112.925C20.4746 112.536 20.2943 111.856 20.5918 111.503C20.8892 111.149 21.5742 111.158 21.8897 110.841C22.2051 110.524 22.1871 109.817 22.5476 109.536C22.9082 109.255 23.5751 109.464 23.9627 109.237C24.3503 109.011 24.5125 108.331 24.9361 108.15C25.3598 107.969 25.9456 108.34 26.3783 108.222C26.8109 108.105 27.1444 107.488 27.595 107.434C28.0457 107.38 28.4964 107.887 28.9831 107.887C29.4698 107.887 29.8844 107.371 30.3621 107.434C30.8398 107.498 31.1462 108.114 31.5789 108.222C32.0115 108.331 32.6154 107.978 33.03 108.15C33.4446 108.322 33.6068 109.011 33.9944 109.237C34.382 109.464 35.058 109.237 35.4185 109.536C35.779 109.835 35.752 110.524 36.0675 110.841C36.3829 111.158 37.095 111.14 37.3654 111.503C37.6358 111.865 37.4375 112.536 37.6628 112.925C37.8881 113.315 38.5641 113.478 38.7444 113.904C38.9246 114.33 38.5551 114.919 38.6723 115.354C38.7894 115.789 39.4023 116.133 39.4564 116.586C39.5105 117.039 39.0058 117.492 39.0058 117.973C39.0058 118.453 39.5195 118.879 39.4564 119.359C39.3933 119.839 38.7804 120.147 38.6723 120.582C38.5641 121.017 38.9156 121.624 38.7444 122.041C38.5731 122.458 37.8431 122.621 37.6628 123.011C37.4825 123.4 37.6628 124.08 37.3654 124.442C37.0679 124.805 36.3919 124.778 36.0675 125.104C35.743 125.43 35.77 126.128 35.4095 126.4C35.049 126.672 34.382 126.472 33.9944 126.708C33.6068 126.943 33.4446 127.614 33.021 127.786C32.5974 127.958 32.0115 127.596 31.5789 127.714C31.1462 127.831 30.8127 128.448 30.3621 128.511C29.9114 128.574 29.4608 128.049 28.9831 128.049C28.5054 128.049 28.0817 128.565 27.595 128.502C27.1083 128.439 26.8109 127.822 26.3783 127.714C25.9456 127.605 25.3417 127.958 24.9361 127.786C24.5305 127.614 24.3503 126.925 23.9627 126.699C23.5751 126.472 22.8991 126.699 22.5386 126.4C22.1781 126.101 22.2051 125.421 21.8897 125.095C21.5742 124.769 20.8622 124.796 20.5918 124.442C20.3214 124.089 20.5197 123.4 20.2943 123.011C20.069 122.621 19.393 122.458 19.2127 122.041C19.0325 121.624 19.402 121.017 19.2848 120.582C19.1677 120.147 18.5548 119.812 18.5007 119.359C18.4466 118.906 18.9514 118.426 18.9514 117.973ZM0.591434 136.422C0.591434 135.969 0.0866942 135.516 0.140774 135.035C0.194853 134.555 0.816762 134.247 0.933934 133.812C1.05111 133.377 0.681567 132.77 0.852819 132.353C1.02407 131.936 1.75414 131.773 1.9344 131.383C2.11467 130.994 1.9344 130.314 2.23184 129.952C2.52928 129.589 3.21428 129.616 3.52975 129.29C3.84521 128.964 3.82718 128.266 4.18771 127.995C4.54823 127.723 5.21521 127.913 5.60278 127.686C5.99035 127.46 6.1616 126.78 6.57621 126.608C6.99082 126.436 7.58569 126.798 8.02734 126.681C8.46899 126.563 8.79346 125.947 9.24412 125.883C9.69478 125.82 10.1454 126.345 10.6231 126.345C11.1008 126.345 11.5245 125.829 12.0022 125.883C12.4799 125.938 12.7863 126.563 13.219 126.681C13.6516 126.798 14.2555 126.436 14.6701 126.608C15.0847 126.78 15.2469 127.469 15.6345 127.686C16.0221 127.904 16.6981 127.686 17.0586 127.995C17.4191 128.303 17.4011 128.973 17.7165 129.299C18.032 129.626 18.735 129.598 19.0054 129.952C19.2758 130.305 19.0866 130.994 19.3119 131.383C19.5372 131.773 20.2132 131.936 20.3935 132.353C20.5737 132.77 20.1952 133.377 20.3124 133.812C20.4295 134.247 21.0424 134.582 21.1055 135.035C21.1686 135.488 20.6549 135.941 20.6549 136.422C20.6549 136.902 21.1596 137.373 21.1055 137.808C21.0514 138.243 20.4295 138.605 20.3124 139.04C20.1952 139.475 20.5647 140.082 20.3935 140.49C20.2222 140.898 19.4921 141.079 19.3119 141.469C19.1316 141.858 19.3119 142.538 19.0054 142.892C18.699 143.245 18.032 143.236 17.7165 143.553C17.4011 143.87 17.4101 144.577 17.0586 144.858C16.7071 145.139 16.0311 144.93 15.6345 145.157C15.2379 145.383 15.0847 146.063 14.6701 146.244C14.2555 146.425 13.6516 146.045 13.219 146.163C12.7863 146.28 12.4528 146.906 12.0022 146.96C11.5515 147.014 11.1008 146.507 10.6231 146.507C10.1454 146.507 9.72182 147.024 9.24412 146.96C8.76642 146.897 8.45096 146.28 8.02734 146.163C7.60372 146.045 6.99082 146.416 6.57621 146.244C6.1616 146.072 5.99035 145.383 5.60278 145.157C5.21521 144.93 4.53922 145.157 4.18771 144.858C3.83619 144.559 3.84521 143.87 3.52975 143.553C3.21428 143.236 2.51125 143.254 2.23184 142.892C1.95243 142.529 2.15973 141.858 1.9344 141.469C1.70907 141.079 1.03308 140.916 0.852819 140.49C0.672554 140.064 1.05111 139.475 0.933934 139.031C0.816762 138.587 0.194853 138.261 0.140774 137.808C0.0866942 137.355 0.591434 136.884 0.591434 136.422Z" fill="#92E3A9"/>
<path opacity="0.53" d="M32.6965 178.394C32.6965 178.757 33.2373 179.029 33.3274 179.373C33.4176 179.717 33.1291 180.197 33.2643 180.524C33.3995 180.85 33.9403 180.986 34.1657 181.294C34.391 181.602 34.1657 182.146 34.4 182.427C34.6344 182.707 35.1751 182.698 35.4275 182.952C35.6799 183.206 35.6709 183.768 35.9503 183.985C36.2297 184.203 36.7705 184.049 37.0769 184.23C37.3834 184.411 37.5186 184.955 37.8431 185.091C38.1675 185.227 38.6543 184.937 38.9968 185.027C39.3393 185.118 39.6096 185.607 39.9612 185.661C40.3127 185.716 40.7003 185.299 41.0608 185.299C41.4213 185.299 41.7999 185.707 42.1514 185.661C42.5029 185.616 42.7733 185.118 43.1158 185.027C43.4583 184.937 43.945 185.227 44.2695 185.091C44.594 184.955 44.7292 184.402 45.0356 184.23C45.3421 184.058 45.8828 184.23 46.1623 183.985C46.4417 183.74 46.4327 183.206 46.685 182.952C46.9374 182.698 47.4962 182.717 47.7125 182.427C47.9288 182.137 47.7666 181.611 47.9469 181.294C48.1271 180.977 48.6679 180.859 48.8482 180.524C49.0285 180.188 48.695 179.717 48.7941 179.373C48.8933 179.029 49.371 178.757 49.416 178.394C49.4611 178.032 49.0645 177.66 49.0645 177.298C49.0645 176.935 49.4611 176.546 49.416 176.201C49.371 175.857 48.8843 175.567 48.7941 175.223C48.704 174.878 48.9924 174.398 48.8572 174.072C48.722 173.746 48.1722 173.61 47.9559 173.302C47.7396 172.994 47.9559 172.45 47.7215 172.169C47.4872 171.888 46.9464 171.897 46.694 171.643C46.4417 171.39 46.4597 170.828 46.1713 170.61C45.8829 170.393 45.3601 170.547 45.0446 170.366C44.7292 170.185 44.612 169.641 44.2785 169.505C43.945 169.369 43.4763 169.659 43.1248 169.568C42.7733 169.478 42.5209 168.988 42.1604 168.934C41.7999 168.88 41.4303 169.297 41.0698 169.297C40.7093 169.297 40.3217 168.889 39.9702 168.934C39.6187 168.979 39.3483 169.478 39.0058 169.568C38.6633 169.659 38.1856 169.369 37.8611 169.505C37.5366 169.641 37.3924 170.185 37.0859 170.366C36.7795 170.547 36.2477 170.366 35.9593 170.61C35.6709 170.855 35.6889 171.39 35.4365 171.643C35.1842 171.897 34.6344 171.879 34.418 172.16C34.2017 172.441 34.3549 172.985 34.1747 173.293C33.9944 173.601 33.4536 173.737 33.2734 174.072C33.0931 174.407 33.4266 174.878 33.3365 175.223C33.2463 175.567 32.7506 175.839 32.7055 176.192C32.6605 176.546 33.0661 176.935 33.0661 177.298C33.0661 177.66 32.6514 178.05 32.6965 178.394ZM21.3579 154.581C21.3579 154.119 20.8441 153.675 20.9072 153.194C20.9703 152.714 21.5832 152.397 21.7004 151.962C21.8176 151.527 21.448 150.92 21.6193 150.512C21.7905 150.104 22.4755 149.923 22.7009 149.534C22.9262 149.144 22.7009 148.464 22.9983 148.111C23.2957 147.757 23.9807 147.767 24.2962 147.449C24.6117 147.132 24.5936 146.425 24.9542 146.145C25.3147 145.864 25.9817 146.072 26.3692 145.846C26.7568 145.619 26.919 144.939 27.3427 144.758C27.7663 144.577 28.3521 144.958 28.7938 144.84C29.2354 144.722 29.5599 144.097 30.0106 144.042C30.4612 143.988 30.9119 144.495 31.3896 144.495C31.8673 144.495 32.2909 143.979 32.7686 144.042C33.2463 144.106 33.5528 144.722 33.9854 144.84C34.418 144.958 35.0219 144.586 35.4365 144.758C35.8511 144.93 36.0134 145.619 36.4009 145.846C36.7885 146.072 37.4645 145.846 37.825 146.145C38.1856 146.444 38.1585 147.132 38.483 147.449C38.8075 147.767 39.5015 147.748 39.7719 148.111C40.0423 148.473 39.853 149.144 40.0783 149.534C40.3037 149.923 40.9797 150.086 41.1509 150.512C41.3222 150.938 40.9616 151.527 41.0788 151.971C41.196 152.415 41.8089 152.741 41.872 153.194C41.9351 153.647 41.4123 154.1 41.4123 154.581C41.4123 155.061 41.926 155.487 41.872 155.967C41.8179 156.447 41.196 156.756 41.0788 157.19C40.9616 157.625 41.3222 158.233 41.1509 158.649C40.9797 159.066 40.2947 159.229 40.0783 159.619C39.862 160.009 40.0783 160.688 39.7719 161.051C39.4654 161.413 38.7985 161.386 38.474 161.712C38.1495 162.038 38.1765 162.736 37.825 163.008C37.4735 163.28 36.7885 163.089 36.4009 163.316C36.0134 163.543 35.8511 164.222 35.4365 164.394C35.0219 164.566 34.418 164.204 33.9854 164.322C33.5528 164.44 33.2193 165.056 32.7686 165.119C32.318 165.183 31.8673 164.657 31.3896 164.657C30.9119 164.657 30.4883 165.174 30.0106 165.119C29.5329 165.065 29.2174 164.44 28.7848 164.322C28.3521 164.204 27.7483 164.566 27.3427 164.394C26.9371 164.222 26.7568 163.533 26.3692 163.316C25.9817 163.099 25.3057 163.316 24.9542 163.008C24.6026 162.7 24.6117 162.029 24.2962 161.703C23.9807 161.377 23.2777 161.404 22.9983 161.051C22.7189 160.697 22.9262 160.009 22.7009 159.619C22.4755 159.229 21.7995 159.066 21.6193 158.649C21.439 158.233 21.8085 157.625 21.7004 157.19C21.5922 156.756 20.9613 156.42 20.9072 155.967C20.8531 155.514 21.3579 155.079 21.3579 154.581ZM20.1321 195.104C20.1321 194.641 19.6273 194.197 19.6814 193.717C19.7355 193.237 20.3574 192.929 20.4746 192.494C20.5918 192.059 20.2222 191.452 20.3935 191.035C20.5647 190.618 21.2948 190.446 21.4751 190.056C21.6553 189.667 21.4751 188.987 21.7725 188.634C22.0699 188.28 22.7549 188.289 23.0704 187.972C23.3859 187.655 23.3678 186.948 23.7284 186.667C24.0889 186.386 24.7559 186.595 25.1434 186.368C25.531 186.142 25.7023 185.462 26.1169 185.281C26.5315 185.1 27.1263 185.48 27.568 185.362C28.0096 185.245 28.3341 184.628 28.7848 184.565C29.2354 184.502 29.6861 185.018 30.1638 185.018C30.6415 185.018 31.0651 184.511 31.5428 184.565C32.0205 184.619 32.327 185.245 32.7596 185.362C33.1922 185.48 33.7961 185.109 34.2107 185.281C34.6253 185.453 34.7876 186.142 35.1751 186.368C35.5627 186.595 36.2387 186.368 36.5992 186.676C36.9598 186.984 36.9327 187.655 37.2572 187.972C37.5817 188.289 38.2757 188.28 38.5461 188.634C38.8165 188.987 38.6272 189.667 38.8525 190.065C39.0779 190.464 39.7539 190.618 39.9341 191.035C40.1144 191.452 39.7358 192.05 39.853 192.494C39.9702 192.938 40.5831 193.264 40.6462 193.717C40.7093 194.17 40.1955 194.623 40.1955 195.104C40.1955 195.584 40.7003 196.01 40.6462 196.49C40.5921 196.97 39.9702 197.278 39.853 197.713C39.7358 198.148 40.1054 198.755 39.9341 199.172C39.7629 199.589 39.0328 199.761 38.8525 200.151C38.6723 200.54 38.8525 201.22 38.5461 201.573C38.2396 201.927 37.5727 201.918 37.2572 202.235C36.9417 202.552 36.9507 203.259 36.5992 203.54C36.2477 203.821 35.5627 203.612 35.1751 203.839C34.7876 204.065 34.6253 204.745 34.2107 204.926C33.7961 205.107 33.1922 204.727 32.7596 204.845C32.327 204.962 31.9935 205.578 31.5428 205.642C31.0922 205.705 30.6415 205.189 30.1638 205.189C29.6861 205.189 29.2625 205.696 28.7848 205.642C28.3071 205.588 27.9916 204.962 27.568 204.845C27.1444 204.727 26.5315 205.098 26.1169 204.926C25.7023 204.754 25.531 204.065 25.1434 203.839C24.7559 203.612 24.0799 203.839 23.7284 203.531C23.3768 203.223 23.3859 202.552 23.0704 202.235C22.7549 201.918 22.0519 201.936 21.7725 201.573C21.4931 201.211 21.7004 200.54 21.4751 200.142C21.2497 199.743 20.5737 199.589 20.3935 199.172C20.2132 198.755 20.5918 198.157 20.4746 197.713C20.3574 197.269 19.7355 196.943 19.6814 196.49C19.6273 196.037 20.1321 195.566 20.1321 195.104ZM40.8625 200.857C40.8625 200.558 40.3397 200.223 40.3758 199.951C40.4118 199.68 41.0067 199.462 41.0788 199.172C41.1509 198.882 40.7453 198.429 40.8535 198.157C40.9616 197.885 41.5835 197.849 41.7548 197.595C41.926 197.342 41.6196 196.78 41.7548 196.544C41.89 196.309 42.5389 196.445 42.7462 196.236C42.9536 196.028 42.8274 195.412 43.0617 195.23C43.2961 195.049 43.8459 195.339 44.0982 195.185C44.3506 195.031 44.3867 194.424 44.6571 194.279C44.9274 194.134 45.3871 194.578 45.6755 194.505C45.964 194.433 46.1442 193.835 46.4417 193.799C46.7391 193.762 47.0636 194.279 47.343 194.279C47.6224 194.279 47.9739 193.762 48.2443 193.799C48.5147 193.835 48.731 194.424 49.0195 194.505C49.3079 194.587 49.7585 194.161 50.0379 194.279C50.3174 194.397 50.3354 195.013 50.5968 195.185C50.8581 195.357 51.3989 195.058 51.6333 195.239C51.8676 195.421 51.7324 196.019 51.9487 196.236C52.1651 196.454 52.7599 196.309 52.9402 196.544C53.1205 196.78 52.832 197.333 52.9853 197.595C53.1385 197.858 53.7514 197.876 53.8866 198.157C54.0218 198.438 53.5891 198.891 53.6613 199.181C53.7334 199.471 54.3282 199.652 54.3643 199.951C54.4003 200.25 53.8866 200.577 53.8866 200.857C53.8866 201.138 54.4003 201.501 54.3643 201.764C54.3282 202.026 53.7424 202.253 53.6613 202.534C53.5801 202.815 54.0038 203.286 53.8866 203.558C53.7694 203.83 53.1565 203.866 52.9853 204.12C52.814 204.373 53.1205 204.926 52.9402 205.162C52.7599 205.397 52.156 205.27 51.9397 205.479C51.7234 205.687 51.8676 206.294 51.6333 206.476C51.3989 206.657 50.8491 206.376 50.5877 206.521C50.3264 206.666 50.3083 207.291 50.0289 207.427C49.7495 207.563 49.3079 207.119 49.0195 207.201C48.731 207.282 48.5418 207.862 48.2443 207.907C47.9469 207.953 47.6224 207.418 47.343 207.418C47.0636 207.418 46.7121 207.944 46.4417 207.907C46.1713 207.871 45.964 207.273 45.6755 207.201C45.3871 207.128 44.9274 207.536 44.6571 207.427C44.3867 207.318 44.3596 206.693 44.0982 206.521C43.8368 206.349 43.2961 206.657 43.0617 206.476C42.8274 206.294 42.9536 205.687 42.7462 205.479C42.5389 205.27 41.9351 205.397 41.7548 205.162C41.5745 204.926 41.8539 204.373 41.7548 204.12C41.6556 203.866 40.9887 203.83 40.8535 203.558C40.7183 203.286 41.1599 202.824 41.0788 202.534C40.9977 202.244 40.4208 202.063 40.3758 201.764C40.3307 201.465 40.8625 201.166 40.8625 200.857ZM18.9514 117.973C18.9514 117.51 18.4376 117.021 18.5007 116.577C18.5638 116.133 19.1767 115.789 19.2848 115.354C19.393 114.919 19.0415 114.312 19.2127 113.904C19.384 113.496 20.1141 113.315 20.2943 112.925C20.4746 112.536 20.2943 111.856 20.5918 111.503C20.8892 111.149 21.5742 111.158 21.8897 110.841C22.2051 110.524 22.1871 109.817 22.5476 109.536C22.9082 109.255 23.5751 109.464 23.9627 109.237C24.3503 109.011 24.5125 108.331 24.9361 108.15C25.3598 107.969 25.9456 108.34 26.3783 108.222C26.8109 108.105 27.1444 107.488 27.595 107.434C28.0457 107.38 28.4964 107.887 28.9831 107.887C29.4698 107.887 29.8844 107.371 30.3621 107.434C30.8398 107.498 31.1462 108.114 31.5789 108.222C32.0115 108.331 32.6154 107.978 33.03 108.15C33.4446 108.322 33.6068 109.011 33.9944 109.237C34.382 109.464 35.058 109.237 35.4185 109.536C35.779 109.835 35.752 110.524 36.0675 110.841C36.3829 111.158 37.095 111.14 37.3654 111.503C37.6358 111.865 37.4375 112.536 37.6628 112.925C37.8881 113.315 38.5641 113.478 38.7444 113.904C38.9246 114.33 38.5551 114.919 38.6723 115.354C38.7894 115.789 39.4023 116.133 39.4564 116.586C39.5105 117.039 39.0058 117.492 39.0058 117.973C39.0058 118.453 39.5195 118.879 39.4564 119.359C39.3933 119.839 38.7804 120.147 38.6723 120.582C38.5641 121.017 38.9156 121.624 38.7444 122.041C38.5731 122.458 37.8431 122.621 37.6628 123.011C37.4825 123.4 37.6628 124.08 37.3654 124.442C37.0679 124.805 36.3919 124.778 36.0675 125.104C35.743 125.43 35.77 126.128 35.4095 126.4C35.049 126.672 34.382 126.472 33.9944 126.708C33.6068 126.943 33.4446 127.614 33.021 127.786C32.5974 127.958 32.0115 127.596 31.5789 127.714C31.1462 127.831 30.8127 128.448 30.3621 128.511C29.9114 128.574 29.4608 128.049 28.9831 128.049C28.5054 128.049 28.0817 128.565 27.595 128.502C27.1083 128.439 26.8109 127.822 26.3783 127.714C25.9456 127.605 25.3417 127.958 24.9361 127.786C24.5305 127.614 24.3503 126.925 23.9627 126.699C23.5751 126.472 22.8991 126.699 22.5386 126.4C22.1781 126.101 22.2051 125.421 21.8897 125.095C21.5742 124.769 20.8622 124.796 20.5918 124.442C20.3214 124.089 20.5197 123.4 20.2943 123.011C20.069 122.621 19.393 122.458 19.2127 122.041C19.0325 121.624 19.402 121.017 19.2848 120.582C19.1677 120.147 18.5548 119.812 18.5007 119.359C18.4466 118.906 18.9514 118.426 18.9514 117.973ZM0.591434 136.422C0.591434 135.969 0.0866942 135.516 0.140774 135.035C0.194853 134.555 0.816762 134.247 0.933934 133.812C1.05111 133.377 0.681567 132.77 0.852819 132.353C1.02407 131.936 1.75414 131.773 1.9344 131.383C2.11467 130.994 1.9344 130.314 2.23184 129.952C2.52928 129.589 3.21428 129.616 3.52975 129.29C3.84521 128.964 3.82718 128.266 4.18771 127.995C4.54823 127.723 5.21521 127.913 5.60278 127.686C5.99035 127.46 6.1616 126.78 6.57621 126.608C6.99082 126.436 7.58569 126.798 8.02734 126.681C8.46899 126.563 8.79346 125.947 9.24412 125.883C9.69478 125.82 10.1454 126.345 10.6231 126.345C11.1008 126.345 11.5245 125.829 12.0022 125.883C12.4799 125.938 12.7863 126.563 13.219 126.681C13.6516 126.798 14.2555 126.436 14.6701 126.608C15.0847 126.78 15.2469 127.469 15.6345 127.686C16.0221 127.904 16.6981 127.686 17.0586 127.995C17.4191 128.303 17.4011 128.973 17.7165 129.299C18.032 129.626 18.735 129.598 19.0054 129.952C19.2758 130.305 19.0866 130.994 19.3119 131.383C19.5372 131.773 20.2132 131.936 20.3935 132.353C20.5737 132.77 20.1952 133.377 20.3124 133.812C20.4295 134.247 21.0424 134.582 21.1055 135.035C21.1686 135.488 20.6549 135.941 20.6549 136.422C20.6549 136.902 21.1596 137.373 21.1055 137.808C21.0514 138.243 20.4295 138.605 20.3124 139.04C20.1952 139.475 20.5647 140.082 20.3935 140.49C20.2222 140.898 19.4921 141.079 19.3119 141.469C19.1316 141.858 19.3119 142.538 19.0054 142.892C18.699 143.245 18.032 143.236 17.7165 143.553C17.4011 143.87 17.4101 144.577 17.0586 144.858C16.7071 145.139 16.0311 144.93 15.6345 145.157C15.2379 145.383 15.0847 146.063 14.6701 146.244C14.2555 146.425 13.6516 146.045 13.219 146.163C12.7863 146.28 12.4528 146.906 12.0022 146.96C11.5515 147.014 11.1008 146.507 10.6231 146.507C10.1454 146.507 9.72182 147.024 9.24412 146.96C8.76642 146.897 8.45096 146.28 8.02734 146.163C7.60372 146.045 6.99082 146.416 6.57621 146.244C6.1616 146.072 5.99035 145.383 5.60278 145.157C5.21521 144.93 4.53922 145.157 4.18771 144.858C3.83619 144.559 3.84521 143.87 3.52975 143.553C3.21428 143.236 2.51125 143.254 2.23184 142.892C1.95243 142.529 2.15973 141.858 1.9344 141.469C1.70907 141.079 1.03308 140.916 0.852819 140.49C0.672554 140.064 1.05111 139.475 0.933934 139.031C0.816762 138.587 0.194853 138.261 0.140774 137.808C0.0866942 137.355 0.591434 136.884 0.591434 136.422Z" fill="white"/>
<path d="M106.452 257.283L77.889 256.213C77.5953 256.196 77.3014 256.242 77.0264 256.347C76.7515 256.452 76.5016 256.614 76.2932 256.823C76.0848 257.031 75.9225 257.282 75.817 257.558C75.7115 257.834 75.665 258.129 75.6807 258.424C75.6794 258.555 75.7062 258.684 75.7592 258.803C75.8121 258.922 75.8901 259.029 75.9876 259.115C76.0852 259.201 76.2001 259.264 76.3244 259.302C76.4488 259.339 76.5797 259.349 76.7082 259.331C77.7997 259.372 78.8841 259.138 79.8628 258.651L102.396 265.447C102.396 265.447 109.832 267.25 106.452 257.283Z" fill="#263238" stroke="#263238" stroke-linecap="round" stroke-linejoin="round"/>
<path d="M105.324 232.817V259.549L66.3421 279.937C66.3421 279.937 63.4128 284.014 66.7927 284.468C67.3158 284.593 67.8601 284.602 68.3868 284.492C68.9135 284.382 69.4097 284.157 69.84 283.833C70.2703 283.508 70.6241 283.092 70.8764 282.615C71.1286 282.137 71.273 281.61 71.2993 281.07C71.2993 281.07 113.661 268.157 114.563 268.157C115.464 268.157 155.573 279.031 155.573 279.031C155.573 279.031 153.996 280.843 156.925 281.749C159.854 282.655 160.08 279.031 159.178 277.671C158.277 276.312 115.464 257.736 115.464 257.736V233.497L105.324 232.817Z" fill="#263238" stroke="#263238" stroke-linecap="round" stroke-linejoin="round"/>
<path d="M166.913 174.479C164.974 174.168 163.101 173.534 161.37 172.603C158.027 170.715 154.878 168.499 151.969 165.988C144.515 159.609 137.304 146.506 130.995 139.484C124.686 132.461 112.518 128.61 95.1675 130.422C77.817 132.235 69.0291 139.257 65.6492 148.319C62.2692 157.38 61.8186 165.988 58.2133 173.917C54.608 181.846 46.9468 184.791 48.2987 192.946C49.6507 201.101 57.5373 214.467 73.7611 224.888C89.9849 235.308 109.138 239.16 130.544 236.894C151.951 234.629 160.739 225.341 168.175 214.467C175.61 203.593 176.512 190.681 175.385 183.885C174.448 178.104 170.554 175.113 166.913 174.479Z" fill="white" stroke="#263238" stroke-linecap="round" stroke-linejoin="round"/>
<path opacity="0.17" d="M84.7569 141.885C81.1741 143.476 77.9068 145.704 75.1127 148.464C67.1991 156.202 70.6061 166.886 68.0734 176.554C67.1515 179.917 65.8859 183.176 64.2969 186.277C64.2969 186.277 67.3974 205.705 79.8176 213.334C92.2378 220.964 112.265 226.165 129.147 223.039C146.029 219.913 155.015 210.906 159.152 203.276C163.289 195.647 161.531 183.169 150.824 175.92C140.116 168.671 133.23 154.073 123.568 147.141C112.067 138.84 97.096 136.403 84.7569 141.885Z" fill="black"/>
<path d="M170.238 175.739C169.401 175.752 168.567 175.825 167.741 175.957C167.741 175.957 162.784 175.73 159.629 183.659C156.474 191.588 158.728 200.423 154.672 206.766C150.616 213.109 147.461 213.788 121.548 214.015C95.6352 214.241 86.622 218.772 76.2568 205.18C65.8916 191.588 69.9475 184.792 61.385 181.62C57.1578 180.053 54.4177 180.587 52.3717 182.155C49.6678 185.317 47.5136 188.28 48.2888 192.947C49.6407 201.102 57.5273 214.468 73.7511 224.888C89.9749 235.309 109.128 239.16 130.534 236.895C151.941 234.63 160.729 225.342 168.165 214.468C175.6 203.594 176.502 190.682 175.375 183.886C175.166 182.232 174.597 180.645 173.71 179.237C172.822 177.829 171.636 176.635 170.238 175.739Z" fill="white"/>
<mask id="mask1_940_7043" style="mask-type:luminance" maskUnits="userSpaceOnUse" x="48" y="175" width="128" height="63">
<path d="M170.238 175.739C169.401 175.752 168.567 175.825 167.741 175.957C167.741 175.957 162.784 175.73 159.629 183.659C156.474 191.588 158.728 200.423 154.672 206.766C150.616 213.109 147.461 213.788 121.548 214.015C95.6352 214.241 86.622 218.772 76.2568 205.18C65.8916 191.588 69.9475 184.792 61.385 181.62C57.1578 180.053 54.4177 180.587 52.3717 182.155C49.6678 185.317 47.5136 188.28 48.2888 192.947C49.6407 201.102 57.5273 214.468 73.7511 224.888C89.9749 235.309 109.128 239.16 130.534 236.895C151.941 234.63 160.729 225.342 168.165 214.468C175.6 203.594 176.502 190.682 175.375 183.886C175.166 182.232 174.597 180.645 173.71 179.237C172.822 177.829 171.636 176.635 170.238 175.739Z" fill="white"/>
</mask>
<g mask="url(#mask1_940_7043)">
<path opacity="0.17" d="M170.238 175.739C169.401 175.752 168.567 175.825 167.741 175.957C167.741 175.957 162.784 175.73 159.629 183.659C156.474 191.588 158.728 200.423 154.672 206.766C150.616 213.109 147.461 213.788 121.548 214.015C95.6352 214.241 86.622 218.772 76.2568 205.18C65.8916 191.588 69.9475 184.792 61.385 181.62C57.1578 180.053 54.4177 180.587 52.3717 182.155C49.6678 185.317 47.5136 188.28 48.2888 192.947C49.6407 201.102 57.5273 214.468 73.7511 224.888C89.9749 235.309 109.128 239.16 130.534 236.895C151.941 234.63 160.729 225.342 168.165 214.468C175.6 203.594 176.502 190.682 175.375 183.886C175.166 182.232 174.597 180.645 173.71 179.237C172.822 177.829 171.636 176.635 170.238 175.739Z" fill="black"/>
</g>
<path d="M170.238 175.739C169.401 175.752 168.567 175.825 167.741 175.957C167.741 175.957 162.784 175.73 159.629 183.659C156.474 191.588 158.728 200.423 154.672 206.766C150.616 213.109 147.461 213.788 121.548 214.015C95.6352 214.241 86.622 218.772 76.2568 205.18C65.8916 191.588 69.9475 184.792 61.385 181.62C57.1578 180.053 54.4177 180.587 52.3717 182.155C49.6678 185.317 47.5136 188.28 48.2888 192.947C49.6407 201.102 57.5273 214.468 73.7511 224.888C89.9749 235.309 109.128 239.16 130.534 236.895C151.941 234.63 160.729 225.342 168.165 214.468C175.6 203.594 176.502 190.682 175.375 183.886C175.166 182.232 174.597 180.645 173.71 179.237C172.822 177.829 171.636 176.635 170.238 175.739Z" stroke="#263238" stroke-linecap="round" stroke-linejoin="round"/>
<path d="M94.0403 166.859C94.0403 166.859 83.6751 178.186 80.7458 189.06C77.8165 199.934 82.5484 211.94 90.8856 214.885C99.2229 217.83 111.391 213.752 117.024 211.487C122.657 209.222 130.994 213.299 140.233 213.526C149.472 213.752 150.824 195.213 148.588 184.076C146.353 172.94 136.42 163.008 126.731 161.423C117.042 159.837 99.0155 160.779 94.0403 166.859Z" fill="#263238" stroke="#263238" stroke-linecap="round" stroke-linejoin="round"/>
<path d="M128.588 97.0862C128.588 97.0862 137.511 101.49 141.891 102.668C146.272 103.846 156.367 103.855 156.871 107.579C157.376 111.304 155.357 131.61 154.167 138.207C152.978 144.804 152.824 154.626 153.491 157.164C154.158 159.701 156.195 163.76 153.834 167.829C151.472 171.897 150.129 177.135 144.739 176.283C139.35 175.431 138.007 171.544 138.007 171.544L105.189 175.613C105.189 175.613 102.657 162.238 99.7815 150.395C96.9063 138.551 91.0297 121.625 91.5345 113.506C92.0392 105.386 102.476 100.303 109.714 97.938C116.952 95.573 128.588 97.0862 128.588 97.0862Z" fill="#92E3A9"/>
<mask id="mask2_940_7043" style="mask-type:luminance" maskUnits="userSpaceOnUse" x="91" y="96" width="66" height="81">
<path d="M128.59 97.0862C128.59 97.0862 137.513 101.49 141.893 102.668C146.274 103.846 156.368 103.855 156.873 107.579C157.378 111.304 155.359 131.61 154.169 138.207C152.98 144.804 152.826 154.626 153.493 157.164C154.16 159.701 156.197 163.76 153.836 167.829C151.474 171.897 150.131 177.135 144.741 176.283C139.352 175.431 138.009 171.544 138.009 171.544L105.191 175.613C105.191 175.613 102.659 162.238 99.7835 150.395C96.9083 138.551 91.0317 121.625 91.5364 113.506C92.0411 105.386 102.478 100.303 109.716 97.938C116.954 95.573 128.59 97.0862 128.59 97.0862Z" fill="white"/>
</mask>
<g mask="url(#mask2_940_7043)">
<path opacity="0.17" d="M152.97 119.159C152.122 121.878 148.238 131.727 148.238 131.727C148.238 131.727 149.779 122.666 150.815 115.417C151.852 108.168 152.104 108.947 148.751 108.947C145.398 108.947 139.477 106.093 137.422 105.06C135.367 104.027 136.385 106.355 134.33 104.797C132.275 103.238 129.175 98.327 129.175 98.327C123.505 97.0312 100.846 99.8856 98.7821 106.355C97.4031 110.678 98.0971 132.996 99.6834 149.986L99.7916 150.412C101.738 158.477 103.532 167.239 104.478 172.015C105.354 173.299 106.449 174.415 107.714 175.313L137.755 171.598C141.487 167.556 144.389 161.902 145.38 160.724C146.543 159.374 150.275 156.846 150.536 154.508C150.797 152.17 149.509 136.122 150.797 130.432C151.798 126.082 152.627 120.99 152.97 119.159ZM145.66 145.437C142.316 149.841 133.294 146.733 128.147 144.921C123.001 143.109 118.359 148.545 112.69 147.25C107.02 145.954 113.978 137.672 121.189 137.409C128.4 137.146 126.597 136.892 133.041 129.127C139.486 121.361 143.343 128.348 145.921 134.301C146.67 136.07 147.034 137.98 146.989 139.902C146.944 141.824 146.491 143.715 145.66 145.446V145.437Z" fill="black"/>
<path d="M153.339 107.76C153.339 107.76 153.168 115.707 151.825 119.938C150.482 124.17 148.121 131.619 148.121 135.85C148.121 140.082 148.959 146.171 147.616 150.068C146.273 153.964 140.207 160.035 140.207 165.97" stroke="#263238" stroke-linecap="round" stroke-linejoin="round"/>
</g>
<path d="M128.588 97.0862C128.588 97.0862 137.511 101.49 141.891 102.668C146.272 103.846 156.367 103.855 156.871 107.579C157.376 111.304 155.357 131.61 154.167 138.207C152.978 144.804 152.824 154.626 153.491 157.164C154.158 159.701 156.195 163.76 153.834 167.829C151.472 171.897 150.129 177.135 144.739 176.283C139.35 175.431 138.007 171.544 138.007 171.544L105.189 175.613C105.189 175.613 102.657 162.238 99.7815 150.395C96.9063 138.551 91.0297 121.625 91.5345 113.506C92.0392 105.386 102.476 100.303 109.714 97.938C116.952 95.573 128.588 97.0862 128.588 97.0862Z" stroke="#263238" stroke-linecap="round" stroke-linejoin="round"/>
<path d="M102.503 138.895C102.503 138.895 103.513 150.911 104.522 156.329C105.118 159.457 105.512 162.62 105.703 165.799C105.703 165.799 109.741 164.956 110.579 168.173C111.028 170.053 110.934 172.022 110.309 173.851C109.683 175.679 108.551 177.29 107.046 178.494C103.675 181.031 99.1324 182.725 95.7704 181.71C92.4085 180.696 91.2638 172.232 91.2638 166.986C91.2638 161.739 91.2638 154.97 89.7496 151.083C88.2354 147.195 92.5707 134.491 102.503 138.895Z" fill="#92E3A9"/>
<mask id="mask3_940_7043" style="mask-type:luminance" maskUnits="userSpaceOnUse" x="89" y="137" width="22" height="46">
<path d="M102.503 138.895C102.503 138.895 103.513 150.911 104.522 156.329C105.118 159.457 105.512 162.62 105.703 165.799C105.703 165.799 109.741 164.956 110.579 168.173C111.028 170.053 110.934 172.022 110.309 173.851C109.683 175.679 108.551 177.29 107.046 178.494C103.675 181.031 99.1324 182.725 95.7704 181.71C92.4085 180.696 91.2638 172.232 91.2638 166.986C91.2638 161.739 91.2638 154.97 89.7496 151.083C88.2354 147.195 92.5707 134.491 102.503 138.895Z" fill="white"/>
</mask>
<g mask="url(#mask3_940_7043)">
<path opacity="0.17" d="M106.352 170.8C103.891 171.344 98.4384 172.169 97.8886 169.976C97.3388 167.783 100.989 165.291 100.989 165.291L103.891 165.581V163.66C103.891 163.66 102.53 152.415 101.187 148.255C99.8445 144.096 92.4537 148.255 89.7227 151.037C91.2459 154.925 91.2459 161.694 91.2459 166.94C91.2459 172.187 92.4176 180.65 95.7525 181.665C99.0874 182.68 103.657 180.985 107.028 178.448C108.788 177.075 110.025 175.137 110.534 172.957C110.11 172.238 109.492 171.654 108.752 171.273C108.012 170.891 107.18 170.728 106.352 170.8Z" fill="black"/>
</g>
<path d="M102.503 138.895C102.503 138.895 103.513 150.911 104.522 156.329C105.118 159.457 105.512 162.62 105.703 165.799C105.703 165.799 109.741 164.956 110.579 168.173C111.028 170.053 110.934 172.022 110.309 173.851C109.683 175.679 108.551 177.29 107.046 178.494C103.675 181.031 99.1324 182.725 95.7704 181.71C92.4085 180.696 91.2638 172.232 91.2638 166.986C91.2638 161.739 91.2638 154.97 89.7496 151.083C88.2354 147.195 92.5707 134.491 102.503 138.895Z" stroke="#263238" stroke-linecap="round" stroke-linejoin="round"/>
<path d="M106.541 166.307C104.669 166.098 102.814 165.759 100.989 165.292C97.447 164.449 95.2658 166.143 94.5898 170.883" stroke="#263238" stroke-linecap="round" stroke-linejoin="round"/>
<path d="M111.932 104.335C111.932 104.335 111.427 111.784 110.246 118.38C109.613 122.209 108.3 125.892 106.371 129.254C106.371 129.254 106.371 114.194 104.018 106.918C101.666 99.6414 102.504 94.3948 106.037 96.044C109.57 97.6931 111.932 104.335 111.932 104.335Z" fill="#263238" stroke="#263238" stroke-linecap="round" stroke-linejoin="round"/>
<path d="M110.074 104.879C109.785 107.974 109.785 111.09 110.074 114.185C110.336 116.633 110.788 119.057 111.426 121.434L116.131 116.532L114.112 122.458L124.684 129.245L131.246 119.096L127.388 114.692C127.388 114.692 133.445 118.081 133.95 117.909C134.455 117.737 133.112 109.446 130.246 104.372C127.379 99.2971 119.303 96.2162 116.609 97.1224C113.914 98.0285 109.569 102.342 110.074 104.879Z" fill="#92E3A9" stroke="#263238" stroke-linecap="round" stroke-linejoin="round"/>
<path d="M115.672 110.47C115.672 110.47 121.08 126.544 123.423 126.037C125.767 125.53 126.956 108.268 126.956 108.268C125.325 109.39 123.482 110.164 121.541 110.543C119.6 110.922 117.603 110.897 115.672 110.47Z" fill="white"/>
<mask id="mask4_940_7043" style="mask-type:luminance" maskUnits="userSpaceOnUse" x="115" y="108" width="12" height="19">
<path d="M115.672 110.47C115.672 110.47 121.08 126.544 123.423 126.037C125.767 125.53 126.956 108.268 126.956 108.268C125.325 109.39 123.482 110.164 121.541 110.543C119.6 110.922 117.603 110.897 115.672 110.47Z" fill="white"/>
</mask>
<g mask="url(#mask4_940_7043)">
<path d="M115.672 110.47C115.672 110.47 121.08 126.544 123.423 126.037C125.767 125.53 126.956 108.268 126.956 108.268C125.325 109.39 123.482 110.164 121.541 110.543C119.6 110.922 117.603 110.897 115.672 110.47Z" fill="#92E3A9"/>
<path opacity="0.53" d="M115.672 110.47C115.672 110.47 121.08 126.544 123.423 126.037C125.767 125.53 126.956 108.268 126.956 108.268C125.325 109.39 123.482 110.164 121.541 110.543C119.6 110.922 117.603 110.897 115.672 110.47Z" fill="white"/>
</g>
<path d="M115.672 110.47C115.672 110.47 121.08 126.544 123.423 126.037C125.767 125.53 126.956 108.268 126.956 108.268C125.325 109.39 123.482 110.164 121.541 110.543C119.6 110.922 117.603 110.897 115.672 110.47Z" stroke="#263238" stroke-linecap="round" stroke-linejoin="round"/>
<path d="M101.828 95.0649C101.828 95.0649 107.831 105.939 112.436 109.618C116.727 113.052 123.378 114.529 126.569 110.632C129.76 106.736 130.616 97.9464 130.445 92.3555C130.273 86.7646 126.236 83.0494 121.693 78.4825C117.15 73.9155 110.246 67.9893 105.703 71.034C101.161 74.0786 100.35 91.5128 101.828 95.0649Z" fill="white"/>
<mask id="mask5_940_7043" style="mask-type:luminance" maskUnits="userSpaceOnUse" x="101" y="70" width="30" height="43">
<path d="M101.826 95.0649C101.826 95.0649 107.829 105.939 112.434 109.618C116.725 113.052 123.376 114.529 126.567 110.632C129.758 106.736 130.614 97.9464 130.443 92.3555C130.272 86.7646 126.234 83.0494 121.691 78.4825C117.148 73.9155 110.244 67.9893 105.701 71.034C101.159 74.0786 100.348 91.5128 101.826 95.0649Z" fill="white"/>
</mask>
<g mask="url(#mask5_940_7043)">
<path d="M126.567 110.678C126.675 110.551 126.774 110.406 126.873 110.271C125.151 110.981 123.324 111.4 121.466 111.512C115.445 111.775 111.551 106.247 111.551 106.247C111.551 106.247 111.028 105.459 107.892 99.6687C104.755 93.8784 105.755 77.7763 105.755 77.7763C105.755 77.7763 108.108 80.9387 114.652 82.5154C118.435 83.4368 122.288 84.043 126.17 84.3277L125.927 82.8144C124.656 81.3918 123.223 79.9691 121.709 78.4559C117.202 73.9251 110.262 67.9627 105.719 71.0074C101.177 74.052 100.311 91.4862 101.844 95.0383C101.844 95.0383 107.847 105.912 112.452 109.591C116.725 113.052 123.376 114.529 126.567 110.678Z" fill="#92E3A9"/>
<path opacity="0.53" d="M126.567 110.678C126.675 110.551 126.774 110.406 126.873 110.271C125.151 110.981 123.324 111.4 121.466 111.512C115.445 111.775 111.551 106.247 111.551 106.247C111.551 106.247 111.028 105.459 107.892 99.6687C104.755 93.8784 105.755 77.7763 105.755 77.7763C105.755 77.7763 108.108 80.9387 114.652 82.5154C118.435 83.4368 122.288 84.043 126.17 84.3277L125.927 82.8144C124.656 81.3918 123.223 79.9691 121.709 78.4559C117.202 73.9251 110.262 67.9627 105.719 71.0074C101.177 74.052 100.311 91.4862 101.844 95.0383C101.844 95.0383 107.847 105.912 112.452 109.591C116.725 113.052 123.376 114.529 126.567 110.678Z" fill="white"/>
<path d="M108.387 93.8785C108.387 93.8785 112.262 94.8934 113.795 92.5283" stroke="#263238" stroke-linecap="round" stroke-linejoin="round"/>
<path d="M121.52 90.8338C121.52 90.8338 125.224 91.8487 126.738 89.0215" stroke="#263238" stroke-linecap="round" stroke-linejoin="round"/>
<path d="M105.701 90.499C106.643 89.6399 107.777 89.0217 109.007 88.6967C110.237 88.3718 111.527 88.3497 112.768 88.6323" stroke="#263238" stroke-linecap="round" stroke-linejoin="round"/>
<path d="M120.006 87.6165C120.006 87.6165 121.52 84.7441 126.405 85.2515" stroke="#263238" stroke-linecap="round" stroke-linejoin="round"/>
<path d="M117.652 99.4693C117.652 99.4693 120.176 100.484 121.186 98.2822" stroke="#263238" stroke-linecap="round" stroke-linejoin="round"/>
<path d="M117.473 103.692C117.473 103.692 121.844 104.208 123.701 101.662" stroke="#263238" stroke-linecap="round" stroke-linejoin="round"/>
</g>
<path d="M101.828 95.0649C101.828 95.0649 107.831 105.939 112.436 109.618C116.727 113.052 123.378 114.529 126.569 110.632C129.76 106.736 130.616 97.9464 130.445 92.3555C130.273 86.7646 126.236 83.0494 121.693 78.4825C117.15 73.9155 110.246 67.9893 105.703 71.034C101.161 74.0786 100.35 91.5128 101.828 95.0649Z" stroke="#263238" stroke-linecap="round" stroke-linejoin="round"/>
<path d="M106.208 172.405C106.119 170.366 106.231 168.323 106.542 166.306C107.047 163.588 108.056 162.419 108.056 159.374C108.056 156.33 108.227 155.143 110.246 155.143C112.265 155.143 116.132 155.315 116.303 156.665C116.474 158.015 116.637 158.867 115.799 158.695C114.96 158.522 111.427 158.359 111.427 158.359L110.922 159.71C112.58 160.244 114.207 160.867 115.799 161.576C116.637 162.084 116.808 165.799 116.808 167.838C116.892 168.744 116.672 169.653 116.181 170.418C115.691 171.184 114.96 171.762 114.104 172.06C112.256 172.74 110.571 170.375 110.571 170.375C110.571 170.375 110.913 172.912 109.057 173.755C107.2 174.597 105.704 173.419 106.208 172.405Z" fill="white" stroke="#263238" stroke-linecap="round" stroke-linejoin="round"/>
<path d="M113.869 150.639L110.895 176.546C110.855 176.891 110.891 177.241 110.999 177.571C111.107 177.901 111.285 178.203 111.52 178.458C111.756 178.712 112.044 178.911 112.364 179.043C112.683 179.174 113.028 179.235 113.373 179.219L136.114 178.231C136.616 178.209 137.099 178.028 137.494 177.714C137.889 177.4 138.175 176.969 138.313 176.483L145.388 151.111C145.489 150.751 145.505 150.372 145.435 150.004C145.365 149.637 145.21 149.291 144.983 148.995C144.757 148.698 144.464 148.459 144.129 148.296C143.794 148.133 143.426 148.051 143.054 148.057L116.203 148.483C115.619 148.491 115.057 148.716 114.627 149.113C114.196 149.511 113.926 150.054 113.869 150.639Z" fill="white" stroke="#263238" stroke-linecap="round" stroke-linejoin="round"/>
<path opacity="0.17" d="M115.023 151.681L112.319 175.504C112.283 175.822 112.315 176.144 112.414 176.448C112.513 176.752 112.677 177.031 112.894 177.265C113.11 177.5 113.375 177.684 113.67 177.805C113.964 177.927 114.282 177.982 114.6 177.968L135.51 177.062C135.973 177.041 136.417 176.874 136.78 176.585C137.142 176.295 137.405 175.898 137.529 175.449L144.046 152.143C144.139 151.812 144.153 151.463 144.088 151.124C144.023 150.786 143.88 150.468 143.671 150.195C143.461 149.922 143.191 149.702 142.883 149.553C142.574 149.403 142.235 149.328 141.892 149.334L117.205 149.724C116.666 149.725 116.146 149.925 115.744 150.285C115.342 150.646 115.085 151.143 115.023 151.681Z" fill="black"/>
<path d="M114.348 157.571L112.293 175.504" stroke="#263238" stroke-width="0.75" stroke-linecap="round" stroke-linejoin="round"/>
<path d="M118.619 149.696H117.177C116.642 149.704 116.129 149.907 115.733 150.267C115.336 150.627 115.084 151.12 115.022 151.654L114.707 154.417" stroke="#263238" stroke-width="0.75" stroke-linecap="round" stroke-linejoin="round"/>
<path d="M148.958 166.143C148.958 166.143 146.254 162.084 144.244 162.084C142.234 162.084 133.14 167.321 130.778 168.853C128.417 170.384 130.95 171.046 130.95 171.046C130.815 171.395 130.791 171.778 130.881 172.141C130.972 172.505 131.172 172.831 131.454 173.075C131.921 173.637 132.581 174.002 133.302 174.099C133.627 174.617 134.098 175.027 134.654 175.277C135.627 175.622 136.651 175.794 137.683 175.785C137.683 175.785 138.521 176.464 141.387 176.464C144.253 176.464 146.939 176.292 148.598 174.263C150.256 172.233 150.139 170.203 148.958 166.143Z" fill="white" stroke="#263238" stroke-linecap="round" stroke-linejoin="round"/>
<path d="M130.994 171.046C130.994 171.046 141.81 169.188 143.784 167.158" stroke="#263238" stroke-linecap="round" stroke-linejoin="round"/>
<path d="M133.301 174.108C133.301 174.108 142.053 172.749 144.748 171.227" stroke="#263238" stroke-linecap="round" stroke-linejoin="round"/>
<path d="M137.682 175.785C137.682 175.785 143.09 175.449 145.424 174.435" stroke="#263238" stroke-linecap="round" stroke-linejoin="round"/>
<path d="M89.5332 183.885C89.5332 183.885 124.459 179.128 138.655 180.713" stroke="white" stroke-miterlimit="10"/>
<path d="M135.744 232.591C135.744 232.591 145.433 228.513 160.981 232.591C160.981 232.591 159.404 235.083 149.489 237.121C139.575 239.16 135.744 232.591 135.744 232.591Z" fill="white" stroke="#263238" stroke-linecap="round" stroke-linejoin="round"/>
<path d="M136.52 180.705C135.918 181.066 135.285 181.369 134.627 181.611C133.013 182.2 129.652 184.031 128.318 189.286C126.515 196.309 135.528 215.338 136.655 223.72C137.094 227.609 137.772 231.467 138.683 235.273C138.683 235.273 142.063 236.179 147.696 237.085C153.329 237.991 155.357 235.047 155.357 235.047C155.357 235.047 157.836 214.205 154.231 201.519C150.625 188.833 149.949 182.943 145.217 181.131C141.892 179.899 138.016 179.826 136.52 180.705Z" fill="white"/>
<mask id="mask6_940_7043" style="mask-type:luminance" maskUnits="userSpaceOnUse" x="128" y="180" width="29" height="58">
<path d="M136.52 180.705C135.918 181.066 135.285 181.369 134.627 181.611C133.013 182.2 129.652 184.031 128.318 189.286C126.515 196.309 135.528 215.338 136.655 223.72C137.094 227.609 137.772 231.467 138.683 235.273C138.683 235.273 142.063 236.179 147.696 237.085C153.329 237.991 155.357 235.047 155.357 235.047C155.357 235.047 157.836 214.205 154.231 201.519C150.625 188.833 149.949 182.943 145.217 181.131C141.892 179.899 138.016 179.826 136.52 180.705Z" fill="white"/>
</mask>
<g mask="url(#mask6_940_7043)">
<path d="M154.166 237.538C154.166 237.538 155.212 217.005 149.452 199.906C143.693 182.807 138.717 183.324 134.526 186.74C130.335 190.156 130.083 197.795 132.435 205.434C134.788 213.072 138.744 221.481 139.24 228.586C139.736 235.69 138.979 240.429 141.863 240.692C144.747 240.954 153.905 242.794 154.166 237.538Z" fill="#92E3A9"/>
<path opacity="0.53" d="M154.166 237.538C154.166 237.538 155.212 217.005 149.452 199.906C143.693 182.807 138.717 183.324 134.526 186.74C130.335 190.156 130.083 197.795 132.435 205.434C134.788 213.072 138.744 221.481 139.24 228.586C139.736 235.69 138.979 240.429 141.863 240.692C144.747 240.954 153.905 242.794 154.166 237.538Z" fill="white"/>
</g>
<path d="M136.52 180.705C135.918 181.066 135.285 181.369 134.627 181.611C133.013 182.2 129.652 184.031 128.318 189.286C126.515 196.309 135.528 215.338 136.655 223.72C137.094 227.609 137.772 231.467 138.683 235.273C138.683 235.273 142.063 236.179 147.696 237.085C153.329 237.991 155.357 235.047 155.357 235.047C155.357 235.047 157.836 214.205 154.231 201.519C150.625 188.833 149.949 182.943 145.217 181.131C141.892 179.899 138.016 179.826 136.52 180.705Z" stroke="#263238" stroke-linecap="round" stroke-linejoin="round"/>
<path d="M135.744 232.591C135.744 232.591 151.292 236.442 160.981 232.591C160.981 232.591 155.348 258.869 151.292 270.422C147.236 281.976 147.461 287.412 146.785 293.756C146.109 300.099 142.278 311.199 137.321 313.011C132.364 314.823 131.913 306.215 135.293 297.833C138.673 289.451 140.025 279.257 138.673 267.024C137.321 254.791 135.744 232.591 135.744 232.591Z" fill="#92E3A9"/>
<mask id="mask7_940_7043" style="mask-type:luminance" maskUnits="userSpaceOnUse" x="133" y="232" width="28" height="82">
<path d="M135.746 232.591C135.746 232.591 151.294 236.442 160.983 232.591C160.983 232.591 155.35 258.869 151.294 270.422C147.238 281.976 147.463 287.412 146.787 293.756C146.111 300.099 142.28 311.199 137.323 313.011C132.366 314.823 131.915 306.215 135.295 297.833C138.675 289.451 140.027 279.257 138.675 267.024C137.323 254.791 135.746 232.591 135.746 232.591Z" fill="white"/>
</mask>
<g mask="url(#mask7_940_7043)">
<path opacity="0.17" d="M155.997 242.794C157.031 239.756 157.779 236.629 158.233 233.451C152.067 234.946 144.559 234.167 139.963 233.451C140.467 240.646 141.711 260.509 141.071 273.883C140.35 289.242 136.7 295.341 133.861 302.227C133.076 304.919 132.91 307.754 133.374 310.519C134.798 311.76 137.529 311.207 140.269 308.888C145.244 304.674 146.29 289.668 146.813 281.513C147.336 273.358 153.636 249.635 155.997 242.794Z" fill="black"/>
</g>
<path d="M135.744 232.591C135.744 232.591 151.292 236.442 160.981 232.591C160.981 232.591 155.348 258.869 151.292 270.422C147.236 281.976 147.461 287.412 146.785 293.756C146.109 300.099 142.278 311.199 137.321 313.011C132.364 314.823 131.913 306.215 135.293 297.833C138.673 289.451 140.025 279.257 138.673 267.024C137.321 254.791 135.744 232.591 135.744 232.591Z" stroke="#263238" stroke-linecap="round" stroke-linejoin="round"/>
<path d="M151.743 265.665L151.518 286.959L153.32 286.053L151.743 265.665Z" fill="#92E3A9" stroke="#263238" stroke-linecap="round" stroke-linejoin="round"/>
<path d="M152.193 263.399L153.996 284.014L155.573 282.881L152.193 263.399Z" fill="#92E3A9" stroke="#263238" stroke-linecap="round" stroke-linejoin="round"/>
<path d="M129.192 233.913C129.192 233.913 121.756 230.062 105.307 232.781C107.657 236.067 111.101 238.398 115.014 239.35C121.548 240.972 129.192 233.913 129.192 233.913Z" fill="white" stroke="#263238" stroke-linecap="round" stroke-linejoin="round"/>
<path d="M124.685 182.264C124.685 182.264 116.574 178.866 110.715 184.302C104.856 189.739 106.659 201.519 107.11 203.785C107.56 206.05 108.011 208.542 108.011 208.542L109.138 237.312L124.911 237.538C124.911 237.538 127.84 214.658 130.093 204.691C132.347 194.723 132.365 187.057 124.685 182.264Z" fill="white"/>
<mask id="mask8_940_7043" style="mask-type:luminance" maskUnits="userSpaceOnUse" x="106" y="181" width="26" height="57">
<path d="M124.683 182.264C124.683 182.264 116.572 178.866 110.713 184.302C104.854 189.739 106.657 201.519 107.108 203.785C107.558 206.05 108.009 208.542 108.009 208.542L109.136 237.312L124.909 237.538C124.909 237.538 127.838 214.658 130.091 204.691C132.345 194.723 132.363 187.057 124.683 182.264Z" fill="white"/>
</mask>
<g mask="url(#mask8_940_7043)">
<path d="M123.27 188.606C114.112 185.444 112.021 193.871 111.228 201.238C110.435 208.605 110.444 235.182 110.706 236.768C110.778 237.003 110.901 237.22 111.066 237.402L124.928 237.602C124.928 237.602 127.858 214.721 130.111 204.754C130.264 204.056 130.408 203.367 130.544 202.697C130.598 198.384 129.732 190.799 123.27 188.606Z" fill="#92E3A9"/>
<path opacity="0.53" d="M123.27 188.606C114.112 185.444 112.021 193.871 111.228 201.238C110.435 208.605 110.444 235.182 110.706 236.768C110.778 237.003 110.901 237.22 111.066 237.402L124.928 237.602C124.928 237.602 127.858 214.721 130.111 204.754C130.264 204.056 130.408 203.367 130.544 202.697C130.598 198.384 129.732 190.799 123.27 188.606Z" fill="white"/>
</g>
<path d="M124.685 182.264C124.685 182.264 116.574 178.866 110.715 184.302C104.856 189.739 106.659 201.519 107.11 203.785C107.56 206.05 108.011 208.542 108.011 208.542L109.138 237.312L124.911 237.538C124.911 237.538 127.84 214.658 130.093 204.691C132.347 194.723 132.365 187.057 124.685 182.264Z" stroke="#263238" stroke-linecap="round" stroke-linejoin="round"/>
<path d="M105.324 232.817C105.324 232.817 108.254 254.565 111.183 264.532C114.112 274.5 117.041 286.28 117.041 298.06C117.041 309.84 126.505 314.823 128.984 312.558C131.463 310.293 129.435 298.966 127.407 293.076C125.379 287.186 122.675 272.461 123.576 264.759C124.477 257.057 129.191 233.914 129.191 233.914C129.191 233.914 113.436 234.82 105.324 232.817Z" fill="#92E3A9"/>
<mask id="mask9_940_7043" style="mask-type:luminance" maskUnits="userSpaceOnUse" x="105" y="232" width="26" height="82">
<path d="M105.324 232.817C105.324 232.817 108.254 254.565 111.183 264.532C114.112 274.5 117.041 286.28 117.041 298.06C117.041 309.84 126.505 314.823 128.984 312.558C131.463 310.293 129.435 298.966 127.407 293.076C125.379 287.186 122.675 272.461 123.576 264.759C124.477 257.057 129.191 233.914 129.191 233.914C129.191 233.914 113.436 234.82 105.324 232.817Z" fill="white"/>
</mask>
<g mask="url(#mask9_940_7043)">
<path opacity="0.17" d="M121.179 259.368C122.224 239.895 127.199 234.104 127.199 234.104L126.758 234.05C121.178 234.282 115.59 234.14 110.029 233.624C110.381 238.671 111.67 254.692 114.536 268.157C118.015 284.377 117.483 293.584 120.106 300.95C122.729 308.317 128.218 313.854 128.218 307.792C128.218 301.73 120.178 278.85 121.179 259.368Z" fill="black"/>
</g>
<path d="M105.324 232.817C105.324 232.817 108.254 254.565 111.183 264.532C114.112 274.5 117.041 286.28 117.041 298.06C117.041 309.84 126.505 314.823 128.984 312.558C131.463 310.293 129.435 298.966 127.407 293.076C125.379 287.186 122.675 272.461 123.576 264.759C124.477 257.057 129.191 233.914 129.191 233.914C129.191 233.914 113.436 234.82 105.324 232.817Z" stroke="#263238" stroke-linecap="round" stroke-linejoin="round"/>
<path d="M110.507 260.454L109.605 282.881L110.732 283.334L110.507 260.454Z" fill="#92E3A9" stroke="#263238" stroke-linecap="round" stroke-linejoin="round"/>
<path d="M111.184 261.36L112.085 283.787L113.888 282.202L111.184 261.36Z" fill="#92E3A9" stroke="#263238" stroke-linecap="round" stroke-linejoin="round"/>
<path d="M106.712 73.5715C106.712 73.5715 102.16 88.6315 105.36 101.499C108.56 114.366 107.045 128.737 106.712 136.693C106.378 144.649 103.512 151.246 97.1128 156.33C90.7134 161.413 82.1328 160.552 75.7334 156.157C69.334 151.763 67.3241 139.231 70.8573 130.432C74.3905 121.633 83.1423 106.238 85.666 98.282C88.1897 90.326 86.6755 86.2665 87.3515 78.818C88.0275 71.3695 92.3989 57.8317 101.493 54.7871C110.588 51.7425 121.187 51.9146 128.425 61.7282C135.662 71.5417 136.338 86.6018 137.005 91.5131C137.672 96.4244 139.709 98.1098 143.738 98.9616C147.767 99.8134 147.109 102.677 144.081 103.021C141.052 103.365 133.175 101.272 130.993 98.3907C128.812 95.5092 130.615 91.0056 126.91 86.6109C123.206 82.2161 110.416 80.5125 106.712 73.5715Z" fill="#263238" stroke="#263238" stroke-linecap="round" stroke-linejoin="round"/>
<path d="M103.27 132.235C103.396 138.642 102.955 144.124 101.467 147.187C97.0869 156.33 90.6515 156.248 82.9902 154.889" stroke="white" stroke-linecap="round" stroke-linejoin="round"/>
<path d="M106.712 73.5713C106.712 73.5713 98.3387 82.8502 99.6907 95.0831C100.439 101.87 102.259 114.366 102.981 125.702" stroke="white" stroke-linecap="round" stroke-linejoin="round"/>
<path d="M79.0329 135.497C76.7615 137.554 75.3555 136.313 75.3555 136.313" stroke="white" stroke-linecap="round" stroke-linejoin="round"/>
<path d="M87.0716 94.6309C87.0716 94.6309 88.8743 115.019 83.917 127.252C83.189 129.113 82.3087 130.911 81.2852 132.625" stroke="white" stroke-linecap="round" stroke-linejoin="round"/>
<path d="M129.137 70.9432C126.127 67.7968 122.051 65.9017 117.717 65.6331C106 64.727 105.703 71.07 105.703 71.07C105.703 71.07 101.043 60.6856 117.717 60.1963" stroke="white" stroke-linecap="round" stroke-linejoin="round"/>
<path d="M133.041 76.9602C132.656 75.9699 132.176 75.0199 131.607 74.124" stroke="white" stroke-linecap="round" stroke-linejoin="round"/>
</svg>
