<svg width="45" height="45" viewBox="0 0 45 45" fill="none" xmlns="http://www.w3.org/2000/svg">
<rect width="45" height="45" rx="22.5" fill="white"/>
<path d="M25.6127 18.3386C24.3757 20.4811 21.2834 20.4811 20.0464 18.3386L16.667 12.4853C15.43 10.3428 16.9762 7.66474 19.4501 7.66474L26.209 7.66474C28.6829 7.66474 30.2291 10.3428 28.9921 12.4853L25.6127 18.3386Z" fill="#004F2D"/>
<path d="M25.1614 25.599C23.0189 24.3621 23.0189 21.2697 25.1614 20.0327L31.0147 16.6533C33.1572 15.4164 35.8353 16.9625 35.8353 19.4364V26.1953C35.8353 28.6692 33.1572 30.2154 31.0147 28.9785L25.1614 25.599Z" fill="#004F2D"/>
<path d="M20.8386 19.6891C22.9811 20.926 22.9811 24.0184 20.8386 25.2553L14.9853 28.6348C12.8428 29.8717 10.1647 28.3255 10.1647 25.8516V19.0928C10.1647 16.6189 12.8428 15.0727 14.9853 16.3096L20.8386 19.6891Z" fill="#004F2D"/>
<path d="M20.0445 27.1399C21.2815 24.9974 24.3739 24.9974 25.6108 27.1399L28.9902 32.9932C30.2272 35.1357 28.681 37.8138 26.2071 37.8138H19.4482C16.9743 37.8138 15.4281 35.1357 16.6651 32.9932L20.0445 27.1399Z" fill="#004F2D"/>
</svg>
