<svg width="19" height="19" viewBox="0 0 19 19" fill="none" xmlns="http://www.w3.org/2000/svg">
<path d="M17.1433 4.84716V6.72389C17.1433 7.9492 16.3678 8.72471 15.1425 8.72471H12.4902V3.30389C12.4902 2.44308 13.196 1.74512 14.0568 1.74512C14.9021 1.75287 15.6776 2.0941 16.236 2.65246C16.7943 3.21859 17.1433 3.9941 17.1433 4.84716Z" stroke="#E97000" stroke-width="1.16327" stroke-miterlimit="10" stroke-linecap="round" stroke-linejoin="round"/>
<path d="M1.63281 5.62267V16.4798C1.63281 17.1235 2.36177 17.488 2.87361 17.1002L4.19975 16.1076C4.50995 15.8749 4.94424 15.9059 5.22343 16.1851L6.51075 17.4802C6.8132 17.7827 7.30956 17.7827 7.61201 17.4802L8.91486 16.1774C9.18629 15.9059 9.62057 15.8749 9.92302 16.1076L11.2492 17.1002C11.761 17.4802 12.49 17.1157 12.49 16.4798V3.29614C12.49 2.44308 13.1879 1.74512 14.041 1.74512H5.51036H4.73485C2.40832 1.74512 1.63281 3.13328 1.63281 4.84716V5.62267Z" stroke="#E97000" stroke-width="1.16327" stroke-miterlimit="10" stroke-linecap="round" stroke-linejoin="round"/>
<path d="M4.73535 7.17383H9.38841" stroke="#E97000" stroke-width="1.16327" stroke-linecap="round" stroke-linejoin="round"/>
<path d="M5.31641 10.2764H8.8062" stroke="#E97000" stroke-width="1.16327" stroke-linecap="round" stroke-linejoin="round"/>
</svg>
